<svg width="13" height="16" viewBox="0 0 13 16" fill="none" xmlns="http://www.w3.org/2000/svg">
<path fill-rule="evenodd" clip-rule="evenodd" d="M0 16L0.0081255 0H8.125L13 4.8V16H0ZM7.3125 1.2V5.6H11.7813L7.3125 1.2ZM9.00006 11.9647V10.2529H8.36489V14H9.00006V12.8261L9.33959 12.416L10.2024 14H10.9525L9.74345 11.9039L10.9002 10.2529H10.1318L9.27713 11.5603L9.00006 11.9647ZM6.55759 12.6103H5.93552V14H5.3004V10.2529H6.55759C6.81028 10.2529 7.02457 10.3044 7.20058 10.4073C7.37832 10.5103 7.51421 10.6519 7.6083 10.832C7.7024 11.0104 7.74948 11.2155 7.74948 11.4471C7.74948 11.689 7.7024 11.8965 7.6083 12.0698C7.51421 12.2431 7.37832 12.377 7.20058 12.4713C7.02457 12.564 6.81028 12.6103 6.55759 12.6103ZM5.93552 10.778V12.0878H6.55759C6.69003 12.0878 6.79631 12.0604 6.8765 12.0055C6.95663 11.9506 7.01503 11.8751 7.05159 11.779C7.08993 11.6829 7.10912 11.574 7.10912 11.4522C7.10912 11.3355 7.08993 11.2257 7.05159 11.1228C7.01503 11.0198 6.95663 10.9366 6.8765 10.8731C6.79631 10.8096 6.69003 10.778 6.55759 10.778H5.93552ZM3.44858 10.2529H3.60018L4.81295 14H4.14645L3.89889 13.1327H2.73881L2.49195 14H1.82806L3.03561 10.2529H3.17936H3.44858ZM2.88824 12.6077L3.31803 11.0977L3.74903 12.6077H2.88824Z" fill="white"/>
</svg>
