<svg width="24" height="16" viewBox="0 0 24 16" fill="none" xmlns="http://www.w3.org/2000/svg">
<path d="M2.56228 10.4712C2.56228 6.6178 4.52669 2.59686 6.83274 2.59686C8.11388 2.59686 9.13879 3.35079 10.7616 5.61257C9.2242 7.95811 8.2847 9.3822 8.2847 9.3822C6.23488 12.5654 5.5516 13.2356 4.44128 13.2356C3.33096 13.3194 2.56228 12.3141 2.56228 10.4712ZM15.9715 9.04712L14.5196 6.70157C14.1779 6.11518 13.7509 5.5288 13.4093 5.02618C14.6904 3.09948 15.7153 2.09424 16.9964 2.09424C19.5587 2.09424 21.6085 5.86387 21.6085 10.555C21.6085 12.3141 21.0107 13.3194 19.8149 13.3194C18.6192 13.3194 18.1922 12.5654 15.9715 9.04712ZM12.2989 3.35079C10.4199 0.921466 8.79715 0 6.91815 0C2.98932 0 0 5.10995 0 10.4712C0 13.822 1.62278 15.9162 4.35587 15.9162C6.32028 15.9162 7.68683 14.9948 10.2491 10.6387C10.2491 10.6387 11.274 8.79581 12.0427 7.53927C12.2989 7.95811 12.5552 8.37696 12.8114 8.87958L14.0071 10.8901C16.3132 14.7435 17.5943 16 19.9004 16C22.548 16 24 13.822 24 10.3874C23.9146 4.6911 20.8399 0 17.1673 0C15.2028 0 13.6655 1.50785 12.2989 3.35079Z" fill="white"/>
</svg>
