<svg width="84" height="20" viewBox="0 0 84 20" fill="none" xmlns="http://www.w3.org/2000/svg">
<path d="M31.1089 4.47284H26.5049C26.1898 4.47284 25.9219 4.69817 25.8728 5.00435L24.0107 16.6267C23.9737 16.856 24.1541 17.0628 24.3904 17.0628H26.5884C26.9034 17.0628 27.1714 16.8375 27.2205 16.5306L27.7227 13.3959C27.7712 13.089 28.0398 12.8637 28.3542 12.8637H29.8117C32.8444 12.8637 34.5948 11.419 35.0519 8.55594C35.2579 7.30338 35.0606 6.31922 34.4648 5.62997C33.8105 4.87313 32.6499 4.47284 31.1089 4.47284ZM31.6401 8.71765C31.3883 10.344 30.1261 10.344 28.9055 10.344H28.2108L28.6982 7.30669C28.7271 7.12311 28.8887 6.98791 29.0772 6.98791H29.3956C30.227 6.98791 31.0113 6.98792 31.4166 7.45448C31.6583 7.73283 31.7323 8.14637 31.6401 8.71765Z" fill="#253B80"/>
<path d="M44.8712 8.66524H42.6665C42.4787 8.66524 42.3164 8.80044 42.2875 8.98402L42.1899 9.59108L42.0357 9.37105C41.5584 8.6891 40.4941 8.46112 39.4318 8.46112C36.9954 8.46112 34.9146 10.2777 34.5093 12.8259C34.2986 14.097 34.5982 15.3125 35.3306 16.1601C36.0025 16.9395 36.9638 17.2642 38.1076 17.2642C40.0706 17.2642 41.1592 16.0216 41.1592 16.0216L41.0609 16.6247C41.0239 16.8553 41.2043 17.0621 41.4392 17.0621H43.4252C43.7409 17.0621 44.0075 16.8368 44.0573 16.5299L45.2489 9.10132C45.2866 8.87268 45.1068 8.66524 44.8712 8.66524ZM41.7981 12.8895C41.5853 14.1295 40.5856 14.9619 39.3106 14.9619C38.6704 14.9619 38.1587 14.7597 37.8302 14.3767C37.5044 13.9963 37.3805 13.4548 37.4842 12.8517C37.6828 11.6224 38.6993 10.7628 39.9548 10.7628C40.5809 10.7628 41.0899 10.9676 41.4251 11.354C41.761 11.7443 41.8943 12.2891 41.7981 12.8895Z" fill="#253B80"/>
<path d="M56.6139 8.66528H54.3984C54.187 8.66528 53.9884 8.76867 53.8686 8.94164L50.8129 13.3727L49.5177 9.11462C49.4363 8.8482 49.1865 8.66528 48.9037 8.66528H46.7266C46.462 8.66528 46.2783 8.91977 46.3624 9.16499L48.8028 16.2151L46.5085 19.4036C46.3281 19.6547 46.5098 20 46.8215 20H49.0343C49.2444 20 49.441 19.8993 49.5601 19.7296L56.929 9.25843C57.1054 9.00792 56.9243 8.66528 56.6139 8.66528Z" fill="#253B80"/>
<path d="M63.9488 4.47284H59.3441C59.0297 4.47284 58.7618 4.69817 58.7126 5.00435L56.8505 16.6267C56.8135 16.856 56.9939 17.0628 57.2289 17.0628H59.5918C59.8113 17.0628 59.9991 16.9051 60.0334 16.6903L60.5619 13.3959C60.6104 13.089 60.879 12.8637 61.1934 12.8637H62.6502C65.6836 12.8637 67.4333 11.419 67.891 8.55594C68.0977 7.30338 67.8991 6.31922 67.3033 5.62997C66.6497 4.87313 65.4897 4.47284 63.9488 4.47284ZM64.4799 8.71765C64.2288 10.344 62.9666 10.344 61.7454 10.344H61.0513L61.5394 7.30669C61.5683 7.12311 61.7286 6.98791 61.9177 6.98791H62.2361C63.0669 6.98791 63.8518 6.98792 64.2571 7.45448C64.4988 7.73283 64.5722 8.14637 64.4799 8.71765Z" fill="#179BD7"/>
<path d="M77.7101 8.66524H75.5068C75.3176 8.66524 75.1567 8.80044 75.1284 8.98402L75.0308 9.59108L74.876 9.37105C74.3987 8.6891 73.335 8.46112 72.2727 8.46112C69.8364 8.46112 67.7562 10.2777 67.3509 12.8259C67.1409 14.097 67.4391 15.3125 68.1716 16.1601C68.8448 16.9395 69.8047 17.2642 70.9485 17.2642C72.9116 17.2642 74.0001 16.0216 74.0001 16.0216L73.9018 16.6247C73.8648 16.8553 74.0452 17.0621 74.2815 17.0621H76.2668C76.5812 17.0621 76.8491 16.8368 76.8983 16.5299L78.0905 9.10132C78.1269 8.87268 77.9464 8.66524 77.7101 8.66524ZM74.637 12.8895C74.4256 14.1295 73.4246 14.9619 72.1495 14.9619C71.5106 14.9619 70.9977 14.7597 70.6691 14.3767C70.3433 13.9963 70.2208 13.4548 70.3231 12.8517C70.523 11.6224 71.5382 10.7628 72.7938 10.7628C73.4198 10.7628 73.9288 10.9676 74.264 11.354C74.6013 11.7443 74.7346 12.2891 74.637 12.8895Z" fill="#179BD7"/>
<path d="M80.3105 4.79161L78.4208 16.6267C78.3838 16.856 78.5642 17.0628 78.7992 17.0628H80.699C81.0147 17.0628 81.2826 16.8375 81.3311 16.5306L83.1945 4.90891C83.2316 4.6796 83.0511 4.47217 82.8162 4.47217H80.6889C80.501 4.47283 80.3395 4.60803 80.3105 4.79161Z" fill="#179BD7"/>
<path d="M4.89206 19.3213L5.24414 17.1197L4.45986 17.1018H0.714844L3.31744 0.856202C3.32552 0.807159 3.35177 0.761431 3.39015 0.728957C3.42852 0.696483 3.47766 0.678589 3.52883 0.678589H9.84346C11.9398 0.678589 13.3865 1.10804 14.1418 1.95568C14.496 2.35332 14.7215 2.76885 14.8305 3.22614C14.945 3.70596 14.947 4.27922 14.8352 4.97841L14.8272 5.02944V5.47745L15.1813 5.67494C15.4795 5.83068 15.7165 6.00896 15.8982 6.21308C16.2012 6.55306 16.3971 6.98517 16.4799 7.49746C16.5654 8.02433 16.5371 8.65128 16.3971 9.36107C16.2355 10.1776 15.9743 10.8887 15.6215 11.4706C15.2971 12.0067 14.8837 12.4514 14.393 12.796C13.9244 13.1234 13.3677 13.3719 12.7382 13.531C12.1283 13.6874 11.4329 13.7663 10.6701 13.7663H10.1787C9.8273 13.7663 9.48599 13.8909 9.21805 14.1142C8.94945 14.3422 8.77172 14.6537 8.71719 14.9943L8.68017 15.1925L8.05813 19.0728L8.02985 19.2153C8.02245 19.2603 8.00966 19.2829 7.99081 19.2981C7.97398 19.312 7.94974 19.3213 7.92618 19.3213H4.89206Z" fill="#253B80"/>
<path d="M15.516 5.08118C15.4971 5.19981 15.4756 5.32109 15.4513 5.44568C14.6186 9.6547 11.7696 11.1087 8.13095 11.1087H6.2783C5.83331 11.1087 5.45834 11.4269 5.389 11.859L4.44046 17.7811L4.17185 19.4599C4.12675 19.7435 4.3489 19.9993 4.63973 19.9993H7.92562C8.31473 19.9993 8.64527 19.721 8.70654 19.3432L8.73885 19.1789L9.35752 15.3138L9.39724 15.1017C9.45783 14.7226 9.78904 14.4443 10.1782 14.4443H10.6696C13.8532 14.4443 16.3454 13.1718 17.0738 9.48968C17.378 7.95148 17.2205 6.6671 16.4154 5.76379C16.1717 5.49141 15.8694 5.26542 15.516 5.08118Z" fill="#179BD7"/>
<path d="M14.6445 4.73926C14.5173 4.70281 14.386 4.66967 14.2514 4.63985C14.1161 4.61069 13.9774 4.58484 13.8347 4.56231C13.3351 4.48278 12.7878 4.44501 12.2015 4.44501H7.25209C7.13024 4.44501 7.01445 4.47218 6.91078 4.52122C6.68257 4.62925 6.51292 4.84199 6.47185 5.10244L5.41897 11.6675L5.38867 11.859C5.45801 11.4269 5.83299 11.1088 6.27797 11.1088H8.13062C11.7693 11.1088 14.6183 9.6541 15.451 5.44574C15.4759 5.32114 15.4968 5.19986 15.5156 5.08123C15.3049 4.97122 15.0767 4.87711 14.831 4.79692C14.7704 4.77704 14.7078 4.75782 14.6445 4.73926Z" fill="#222D65"/>
<path d="M6.47215 5.10239C6.51322 4.84193 6.68286 4.6292 6.91108 4.52183C7.01543 4.47279 7.13054 4.44562 7.25239 4.44562H12.2018C12.7881 4.44562 13.3354 4.4834 13.835 4.56292C13.9777 4.58546 14.1164 4.6113 14.2517 4.64046C14.3863 4.67029 14.5176 4.70342 14.6448 4.73987C14.7081 4.75843 14.7707 4.77765 14.832 4.79687C15.0777 4.87706 15.3059 4.97183 15.5166 5.08118C15.7644 3.52574 15.5146 2.4667 14.6603 1.50772C13.7185 0.451985 12.0187 0 9.84355 0H3.52892C3.0846 0 2.70559 0.318112 2.63692 0.750878L0.00672449 17.1635C-0.045112 17.4882 0.209358 17.7812 0.54192 17.7812H4.44043L5.41927 11.6674L6.47215 5.10239Z" fill="#253B80"/>
</svg>
