<svg width="16" height="16" viewBox="0 0 16 16" fill="none" xmlns="http://www.w3.org/2000/svg">
<path d="M7.32936 1.25565C10.2153 0.81517 13.1067 0.400274 15.9982 0C16 2.52776 15.9982 5.05369 16 7.58145C13.1104 7.59242 10.2208 7.63628 7.32936 7.64542C7.32753 5.51428 7.32753 3.38497 7.32936 1.25565ZM0 2.27553C2.17316 1.94106 4.35566 1.65227 6.53798 1.37994C6.53981 3.47635 6.53981 5.57094 6.54164 7.66735C4.36115 7.66552 2.18049 7.69842 0 7.69294V2.27553ZM0 8.35275C2.17884 8.34544 4.35731 8.38017 6.53596 8.37651C6.53596 10.4784 6.54146 12.5803 6.53798 14.6822C4.36115 14.3603 2.18049 14.0791 0 13.7848V8.35275ZM7.31654 8.43683H15.9982C16.0018 10.9573 15.9982 13.4777 15.9982 16C13.1122 15.5687 10.2208 15.1684 7.32936 14.7774C7.3257 12.6644 7.3202 10.5515 7.31654 8.43683Z" fill="white"/>
</svg>
