<svg width="890" height="150" viewBox="0 0 890 150" fill="none" xmlns="http://www.w3.org/2000/svg">
<g filter="url(#filter0_dd_82_23884)">
<mask id="path-1-inside-1_82_23884" fill="white">
<path d="M566.14 89.6162C566.089 89.558 566.055 89.4864 566.042 89.4099C564.925 81.9871 564.028 76.6721 563.352 73.4649C561.668 65.4729 560.74 54.6739 559.04 46.3622C558.609 44.2518 558.141 42.5936 557.637 41.3877C557.561 41.2076 557.433 41.0539 557.271 40.9458C557.109 40.8376 556.919 40.7798 556.725 40.7795H535.236C535.206 40.779 535.176 40.7852 535.148 40.7977C535.121 40.8102 535.096 40.8288 535.077 40.8519C535.057 40.8751 535.043 40.9023 535.036 40.9316C535.028 40.9609 535.027 40.9915 535.033 41.0212C539.925 71.0244 542.612 87.471 543.095 90.3612C544.234 97.181 545.38 102.865 546.534 107.413C546.595 107.648 546.731 107.856 546.921 108.004C547.112 108.152 547.346 108.232 547.587 108.232H573.099C573.625 108.232 574.144 108.115 574.619 107.89C575.094 107.665 575.512 107.337 575.843 106.93L627.649 41.1942C628.018 40.7254 627.685 40.037 627.088 40.037L607.367 40.0371C607.152 40.0371 606.948 40.134 606.813 40.3011L566.744 89.6126C566.695 89.6714 566.63 89.7145 566.557 89.7367C566.484 89.7589 566.406 89.7594 566.332 89.7381C566.258 89.7167 566.192 89.6744 566.14 89.6162Z"/>
<path d="M650.289 76.7398C647.553 85.5895 644.223 95.2501 640.824 105.69C640.46 106.808 639.628 107.364 638.329 107.359C634.81 107.359 628.603 107.362 619.709 107.367C619.539 107.366 619.371 107.324 619.22 107.246C619.069 107.168 618.939 107.055 618.84 106.916C618.741 106.778 618.676 106.618 618.651 106.449C618.626 106.281 618.641 106.109 618.696 105.948C622.844 93.6699 626.662 81.8963 630.149 70.6269C632.894 61.7772 636.223 52.1245 639.623 41.6764C639.987 40.5588 640.819 40.0026 642.118 40.0078C645.637 40.0078 651.844 40.0052 660.737 40C660.908 40.001 661.075 40.0423 661.226 40.1207C661.378 40.199 661.508 40.3121 661.607 40.4506C661.706 40.5891 661.77 40.7491 661.795 40.9175C661.821 41.0858 661.805 41.2577 661.751 41.4191C657.598 53.7021 653.777 65.4757 650.289 76.7398Z"/>
<path d="M94.8258 107.195L77.0095 60.3814C76.9762 60.2928 76.9173 60.2161 76.8402 60.1612C76.7631 60.1063 76.6714 60.0756 76.5768 60.0731C76.4822 60.0706 76.389 60.0963 76.3091 60.1471C76.2292 60.1979 76.1663 60.2713 76.1284 60.358C75.4994 61.7511 75.1538 62.5516 75.0914 62.7595C69.9453 79.2113 65.4256 93.4644 61.5323 105.519C61.1528 106.704 60.4355 107.302 59.3803 107.312C53.0958 107.385 46.8763 107.39 40.7218 107.328C40.6072 107.326 40.4945 107.297 40.3929 107.244C40.2913 107.191 40.2037 107.115 40.1369 107.023C40.0702 106.93 40.0262 106.823 40.0087 106.711C39.9911 106.599 40.0003 106.484 40.0357 106.376C46.3565 86.5666 53.0568 65.7302 60.1366 43.8672C60.4329 42.9523 60.9007 42.0167 61.5401 41.0602C61.7177 40.7963 61.9578 40.58 62.2393 40.4305C62.5207 40.2809 62.8348 40.2026 63.1541 40.2025H93.8356C93.9829 40.2027 94.1286 40.2341 94.263 40.2946C94.3973 40.355 94.5174 40.4432 94.6153 40.5534C95.291 41.3123 95.9122 42.3441 96.4788 43.6489C99.0986 49.6682 101.482 55.8253 103.629 62.1201C106.677 71.0634 110.124 79.0008 113.601 88.0922C113.643 88.2014 113.718 88.2793 113.827 88.3261C113.914 88.3629 114.008 88.3809 114.103 88.3789C114.197 88.3768 114.29 88.3549 114.376 88.3144C114.461 88.2739 114.537 88.2158 114.598 88.1439C114.66 88.072 114.705 87.988 114.732 87.8973C119.244 72.6098 124.096 57.2366 129.289 41.7775C129.441 41.3215 129.734 40.9249 130.125 40.6436C130.517 40.3624 130.988 40.2108 131.472 40.2103H149.522C149.691 40.2096 149.858 40.2488 150.008 40.3249C150.159 40.4009 150.289 40.5115 150.389 40.6477C150.489 40.7838 150.555 40.9417 150.582 41.1082C150.608 41.2748 150.595 41.4454 150.544 41.606L129.897 106.408C129.784 106.767 129.559 107.08 129.255 107.303C128.951 107.526 128.583 107.647 128.205 107.647H95.473C95.3334 107.648 95.1967 107.605 95.0811 107.524C94.9655 107.443 94.8764 107.328 94.8258 107.195Z"/>
<path d="M429.211 105.425C422.841 99.7724 425.601 90.798 427.823 83.4921C431.041 72.9037 434.048 64.0306 436.844 56.8729C437.733 54.6013 439.36 51.9399 441.725 48.8887C446.222 43.0877 452.163 40.1897 459.549 40.1949C477.633 40.2053 496.414 40.2079 515.891 40.2027C517.071 40.2027 518.363 40.2859 519.766 40.4522C527.361 41.3723 529.614 48.1012 528.327 54.8067C526.035 66.7518 521.591 78.7983 517.24 89.9013C514.55 96.755 509.451 103.687 502.379 105.995C499.655 106.889 496.032 107.479 491.51 107.764C473.67 108.908 456.332 108.872 439.495 107.655C435.909 107.395 432.761 106.816 430.053 105.917C429.744 105.814 429.458 105.647 429.211 105.425ZM449.039 83.8586C447.986 88.7474 453.039 89.8779 456.641 90.0807C464.511 90.5277 472.768 90.6239 481.412 90.3691C485.389 90.2496 488.963 89.8416 492.133 89.145C495.845 88.3341 497.272 85.9872 498.948 82.5565C501.225 77.9042 503.029 72.2981 504.359 65.7382C505.568 59.7812 503.829 57.7072 497.942 57.3953C491.746 57.0678 482.844 57.0366 471.237 57.3017C467.313 57.3901 463.859 57.8501 460.875 58.6818C457.592 59.5941 455.861 63.1339 454.645 66.1046C452.155 72.1656 450.286 78.0836 449.039 83.8586Z"/>
<path d="M742.576 91.1253C742.7 91.1254 742.822 91.1543 742.933 91.2096C743.044 91.2649 743.141 91.3452 743.216 91.4442C743.291 91.5431 743.342 91.658 743.364 91.7799C743.387 91.9018 743.382 92.0273 743.348 92.1467C741.981 97.0692 740.307 102.169 738.327 107.445C737.989 108.354 737.264 108.809 736.151 108.809C704.5 108.825 687.739 108.822 685.868 108.801C678.258 108.723 668.418 108.427 660.8 105.269C659.454 104.713 658.305 103.634 657.354 102.033C654.5 97.2226 655.436 91.7334 656.863 85.8232C658.75 78.0652 661.097 71.8275 664.254 63.43C666.297 58.0033 668.379 54.0501 670.5 51.5707C674.217 47.2251 678.736 44.2804 684.059 42.7366C686.367 42.066 690.286 41.6008 695.817 41.3409C702.252 41.0342 709.072 40.8601 716.277 40.8185C728.222 40.7561 742.246 40.7561 758.35 40.8185C758.552 40.8188 758.751 40.8667 758.931 40.9584C759.112 41.0501 759.268 41.183 759.387 41.3463C759.506 41.5096 759.585 41.6987 759.618 41.8982C759.65 42.0978 759.635 42.3022 759.574 42.4949L754.818 57.4107C754.735 57.6751 754.569 57.9062 754.344 58.0703C754.12 58.2343 753.849 58.3229 753.57 58.3229C726.15 58.3281 710.016 58.3385 705.166 58.3541C699.51 58.3697 694.666 58.7986 690.632 59.6406C690.051 59.7639 689.504 60.0112 689.026 60.3658C684.932 63.43 682.383 70.4084 680.737 75.765C679.248 80.6148 678.414 82.8292 678.656 86.7901C678.749 88.2923 679.651 89.2696 681.361 89.7218C684.558 90.5691 688.935 90.9979 694.492 91.0083C725.29 91.0759 741.318 91.1149 742.576 91.1253Z"/>
<path d="M201.216 57.4653C179.119 57.4549 166.592 57.4705 163.634 57.5121C163.037 57.5173 162.545 57.4601 162.161 57.3406C162.054 57.3084 161.955 57.2554 161.869 57.1847C161.783 57.114 161.713 57.027 161.661 56.9289C161.609 56.8308 161.578 56.7236 161.569 56.6135C161.56 56.5034 161.573 56.3927 161.607 56.288L166.067 42.6509C166.209 42.2121 166.489 41.8305 166.865 41.5624C167.241 41.2943 167.694 41.1538 168.157 41.1616C169.061 41.1461 180.05 41.1435 201.123 41.1538C223.225 41.1642 235.752 41.1487 238.705 41.1071C239.303 41.1019 239.794 41.159 240.178 41.2786C240.285 41.3108 240.384 41.3638 240.47 41.4345C240.556 41.5052 240.627 41.5922 240.678 41.6903C240.73 41.7884 240.761 41.8956 240.77 42.0057C240.78 42.1158 240.767 42.2265 240.732 42.3312L236.272 55.9683C236.131 56.4058 235.852 56.7864 235.477 57.0544C235.103 57.3224 234.652 57.4637 234.19 57.4575C233.281 57.4731 222.289 57.4757 201.216 57.4653Z"/>
<path d="M270.026 41.1772C270.086 41.1771 270.144 41.191 270.198 41.2177C270.251 41.2443 270.297 41.2831 270.333 41.3308C270.368 41.3785 270.392 41.4339 270.403 41.4925C270.413 41.5511 270.41 41.6113 270.393 41.6684C268.75 47.1108 265.109 59.0013 259.469 77.34C258.461 80.6252 257.722 84.0429 257.255 87.5932C257.22 87.8634 257.289 88.1368 257.45 88.3573C259.087 90.5873 264.67 91.0395 267.578 91.1721C270.187 91.2864 276.16 91.3176 285.496 91.2656C291.195 91.2344 299.016 90.6653 301.573 84.529C307.366 70.6346 311.608 57.1378 316.006 42.9159C316.162 42.4122 316.475 41.9717 316.899 41.6588C317.322 41.346 317.834 41.1772 318.36 41.1772H335.966C336.128 41.1773 336.288 41.2153 336.432 41.2882C336.577 41.3612 336.702 41.4669 336.798 41.5968C336.894 41.7268 336.957 41.8772 336.983 42.036C337.01 42.1948 336.998 42.3573 336.949 42.5105C331.849 58.7544 326.688 74.0003 321.464 88.2482C320.949 89.662 319.865 92.2169 318.212 95.9127C317.391 97.7476 315.644 99.7904 312.973 102.041C305.947 107.959 295.819 109.277 287.047 109.378C283.107 109.425 274.598 109.425 261.52 109.378C257.065 109.357 252.566 109.064 248.023 108.497C244.093 107.998 239.236 107.07 236.124 104.638C235.919 104.478 235.751 104.276 235.633 104.045C234.115 101.098 233.435 98.6599 233.59 96.7314C233.814 93.9036 234.56 90.2806 235.828 85.8622C238.406 76.854 241.421 67.4455 244.873 57.6368C246.736 52.327 248.093 46.7755 250.112 41.9179C250.202 41.6991 250.355 41.5119 250.552 41.38C250.75 41.2481 250.982 41.1775 251.22 41.1772H270.026Z"/>
<path d="M409.033 82.6888C412.463 84.2638 413.508 86.0571 414.233 89.8933C415.569 96.947 416.552 102.891 417.18 107.725C417.199 107.86 417.189 107.997 417.15 108.128C417.111 108.258 417.044 108.379 416.954 108.482C416.863 108.585 416.752 108.667 416.627 108.723C416.502 108.78 416.366 108.809 416.229 108.809H394.678C394.37 108.809 394.072 108.699 393.838 108.498C393.605 108.298 393.452 108.021 393.407 107.717L391.294 93.8152C391.242 93.4749 391.088 93.1583 390.853 92.9066C390.618 92.6549 390.312 92.4797 389.976 92.4039L388.09 91.9907C387.737 91.9027 387.376 91.8581 387.014 91.8582H353.283C352.806 91.8586 352.341 92.0106 351.956 92.2923C351.57 92.574 351.285 92.9707 351.139 93.4254L346.671 107.437C346.544 107.835 346.295 108.182 345.958 108.429C345.622 108.675 345.216 108.809 344.8 108.809H326.75C326.583 108.809 326.418 108.77 326.27 108.695C326.121 108.62 325.991 108.511 325.893 108.376C325.794 108.242 325.728 108.086 325.701 107.921C325.674 107.757 325.686 107.588 325.736 107.429C331.589 89.085 338.484 67.7444 346.422 43.4071C346.869 42.0348 347.729 41.3513 349.003 41.3565C359.57 41.3721 376.186 41.3746 398.85 41.3643C400.648 41.3643 402.525 41.3357 404.479 41.2785C410.005 41.1069 415.32 41.7073 420.424 43.0796C421.807 43.4539 422.922 43.9711 423.769 44.6312C423.965 44.7859 424.134 44.9759 424.268 45.1926C426.191 48.3738 426.75 51.9709 425.944 55.9838C424.832 61.5041 422.773 67.2895 419.769 73.3401C417.534 77.8416 413.968 80.7811 409.071 82.1586C409.015 82.1733 408.964 82.2054 408.926 82.2505C408.889 82.2955 408.866 82.3512 408.862 82.4097C408.858 82.4682 408.872 82.5266 408.902 82.5766C408.933 82.6267 408.978 82.6659 409.033 82.6888ZM358.242 74.5876C358.393 74.65 358.767 74.6838 359.365 74.689C366.029 74.7462 374.094 74.7098 383.559 74.5798C388.144 74.5174 392.497 74.1406 396.62 73.4492C397.451 73.3079 398.212 72.881 398.772 72.2407C399.77 71.1023 400.565 69.6105 401.157 67.7652C402.233 64.4046 404.354 60.1162 400.058 59.1416C398.545 58.7985 396.978 58.627 395.356 58.627C377.304 58.627 366.978 58.627 364.379 58.627C364.137 58.627 363.898 58.6802 363.677 58.7829C362.585 59.3079 361.85 60.189 361.47 61.4261C360.249 65.3819 358.996 69.3922 357.712 73.457C357.644 73.6788 357.66 73.918 357.758 74.1273C357.856 74.3366 358.029 74.5009 358.242 74.5876Z"/>
<path d="M849.941 42.768L845.536 56.6C845.457 56.8475 845.3 57.0632 845.09 57.216C844.88 57.3688 844.627 57.4507 844.367 57.4499H772.275C772.082 57.4505 771.891 57.4054 771.719 57.3183C771.546 57.2312 771.397 57.1045 771.283 56.9486C771.169 56.7927 771.093 56.612 771.062 56.4214C771.031 56.2307 771.046 56.0354 771.105 55.8515L775.51 42.0195C775.59 41.772 775.746 41.5562 775.956 41.4034C776.167 41.2506 776.42 41.1687 776.68 41.1696H848.772C848.965 41.1689 849.156 41.214 849.328 41.3011C849.5 41.3883 849.65 41.5149 849.764 41.6708C849.878 41.8267 849.953 42.0074 849.984 42.1981C850.015 42.3888 850.001 42.5841 849.941 42.768Z"/>
<path d="M192.897 66.8062C217.635 66.801 230.396 66.814 231.181 66.8452C231.307 66.8455 231.431 66.8754 231.543 66.9326C231.656 66.9897 231.753 67.0725 231.827 67.1742C231.902 67.276 231.951 67.3938 231.972 67.5181C231.992 67.6425 231.983 67.7699 231.945 67.89L228.124 80.1471C227.986 80.5994 227.705 80.9952 227.323 81.276C226.941 81.5568 226.478 81.7077 226.004 81.7065C225.661 81.7169 214.594 81.7221 192.804 81.7221C168.071 81.7221 155.31 81.7065 154.52 81.6753C154.394 81.675 154.27 81.6451 154.157 81.5879C154.045 81.5308 153.948 81.448 153.873 81.3463C153.799 81.2445 153.75 81.1268 153.729 81.0024C153.709 80.8781 153.718 80.7506 153.756 80.6305L157.576 68.3735C157.717 67.9225 157.998 67.5285 158.38 67.2492C158.762 66.9699 159.223 66.8201 159.697 66.8218C160.046 66.8114 171.112 66.8062 192.897 66.8062Z"/>
<path d="M802.153 81.7219C777.416 81.7219 764.654 81.7063 763.87 81.6751C763.744 81.6748 763.619 81.6449 763.507 81.5878C763.395 81.5306 763.297 81.4478 763.223 81.3461C763.149 81.2444 763.099 81.1266 763.079 81.0022C763.058 80.8779 763.068 80.7505 763.105 80.6303L766.926 68.3733C767.065 67.9209 767.346 67.5251 767.728 67.2444C768.11 66.9636 768.572 66.8127 769.047 66.8139C769.395 66.8035 780.462 66.7983 802.247 66.7983C826.984 66.7983 839.748 66.8139 840.538 66.8451C840.664 66.8465 840.787 66.8774 840.898 66.935C841.01 66.9927 841.106 67.0756 841.179 67.1772C841.253 67.2787 841.302 67.3961 841.322 67.5198C841.342 67.6436 841.332 67.7703 841.295 67.8899L837.474 80.1469C837.335 80.5993 837.054 80.995 836.672 81.2758C836.29 81.5566 835.828 81.7075 835.353 81.7063C835.01 81.7167 823.943 81.7219 802.153 81.7219Z"/>
<path d="M184.882 91.8661C207.051 91.8661 219.618 91.8453 222.581 91.8037C223.184 91.7985 223.677 91.8557 224.062 91.9752C224.169 92.0085 224.268 92.0623 224.354 92.1335C224.439 92.2047 224.51 92.2917 224.562 92.3897C224.613 92.4877 224.644 92.5946 224.654 92.7041C224.663 92.8137 224.65 92.9237 224.616 93.0279L220.148 106.712C220.006 107.151 219.727 107.534 219.351 107.803C218.975 108.073 218.522 108.215 218.058 108.209C217.149 108.224 206.124 108.232 184.983 108.232C162.808 108.227 150.239 108.245 147.276 108.287C146.679 108.292 146.187 108.235 145.803 108.115C145.695 108.083 145.596 108.029 145.509 107.959C145.422 107.888 145.351 107.801 145.299 107.703C145.246 107.605 145.214 107.498 145.204 107.388C145.195 107.278 145.207 107.167 145.241 107.063L149.717 93.3787C149.859 92.9392 150.138 92.5566 150.514 92.2871C150.89 92.0177 151.343 91.8756 151.807 91.8817C152.716 91.8661 163.741 91.8609 184.882 91.8661Z"/>
<path d="M794.232 91.8659C816.392 91.8711 828.953 91.8529 831.916 91.8113C832.513 91.8061 833.007 91.8633 833.397 91.9829C833.504 92.0162 833.603 92.0699 833.688 92.1411C833.774 92.2123 833.845 92.2994 833.896 92.3973C833.948 92.4953 833.979 92.6022 833.989 92.7117C833.998 92.8213 833.985 92.9313 833.951 93.0355L829.483 106.712C829.341 107.151 829.062 107.534 828.686 107.803C828.31 108.073 827.857 108.215 827.393 108.209C826.484 108.224 815.464 108.229 794.334 108.224C772.174 108.219 759.616 108.237 756.658 108.279C756.055 108.289 755.561 108.235 755.177 108.115C755.069 108.082 754.969 108.028 754.883 107.956C754.796 107.884 754.725 107.796 754.674 107.698C754.622 107.599 754.591 107.491 754.582 107.38C754.574 107.27 754.587 107.159 754.623 107.055L759.091 93.3785C759.234 92.9404 759.514 92.5596 759.89 92.2916C760.266 92.0237 760.718 91.8827 761.18 91.8893C762.09 91.8737 773.107 91.8659 794.232 91.8659Z"/>
</mask>
<path d="M566.14 89.6162C566.089 89.558 566.055 89.4864 566.042 89.4099C564.925 81.9871 564.028 76.6721 563.352 73.4649C561.668 65.4729 560.74 54.6739 559.04 46.3622C558.609 44.2518 558.141 42.5936 557.637 41.3877C557.561 41.2076 557.433 41.0539 557.271 40.9458C557.109 40.8376 556.919 40.7798 556.725 40.7795H535.236C535.206 40.779 535.176 40.7852 535.148 40.7977C535.121 40.8102 535.096 40.8288 535.077 40.8519C535.057 40.8751 535.043 40.9023 535.036 40.9316C535.028 40.9609 535.027 40.9915 535.033 41.0212C539.925 71.0244 542.612 87.471 543.095 90.3612C544.234 97.181 545.38 102.865 546.534 107.413C546.595 107.648 546.731 107.856 546.921 108.004C547.112 108.152 547.346 108.232 547.587 108.232H573.099C573.625 108.232 574.144 108.115 574.619 107.89C575.094 107.665 575.512 107.337 575.843 106.93L627.649 41.1942C628.018 40.7254 627.685 40.037 627.088 40.037L607.367 40.0371C607.152 40.0371 606.948 40.134 606.813 40.3011L566.744 89.6126C566.695 89.6714 566.63 89.7145 566.557 89.7367C566.484 89.7589 566.406 89.7594 566.332 89.7381C566.258 89.7167 566.192 89.6744 566.14 89.6162Z" fill="url(#paint0_linear_82_23884)"/>
<path d="M650.289 76.7398C647.553 85.5895 644.223 95.2501 640.824 105.69C640.46 106.808 639.628 107.364 638.329 107.359C634.81 107.359 628.603 107.362 619.709 107.367C619.539 107.366 619.371 107.324 619.22 107.246C619.069 107.168 618.939 107.055 618.84 106.916C618.741 106.778 618.676 106.618 618.651 106.449C618.626 106.281 618.641 106.109 618.696 105.948C622.844 93.6699 626.662 81.8963 630.149 70.6269C632.894 61.7772 636.223 52.1245 639.623 41.6764C639.987 40.5588 640.819 40.0026 642.118 40.0078C645.637 40.0078 651.844 40.0052 660.737 40C660.908 40.001 661.075 40.0423 661.226 40.1207C661.378 40.199 661.508 40.3121 661.607 40.4506C661.706 40.5891 661.77 40.7491 661.795 40.9175C661.821 41.0858 661.805 41.2577 661.751 41.4191C657.598 53.7021 653.777 65.4757 650.289 76.7398Z" fill="url(#paint1_linear_82_23884)"/>
<path d="M94.8258 107.195L77.0095 60.3814C76.9762 60.2928 76.9173 60.2161 76.8402 60.1612C76.7631 60.1063 76.6714 60.0756 76.5768 60.0731C76.4822 60.0706 76.389 60.0963 76.3091 60.1471C76.2292 60.1979 76.1663 60.2713 76.1284 60.358C75.4994 61.7511 75.1538 62.5516 75.0914 62.7595C69.9453 79.2113 65.4256 93.4644 61.5323 105.519C61.1528 106.704 60.4355 107.302 59.3803 107.312C53.0958 107.385 46.8763 107.39 40.7218 107.328C40.6072 107.326 40.4945 107.297 40.3929 107.244C40.2913 107.191 40.2037 107.115 40.1369 107.023C40.0702 106.93 40.0262 106.823 40.0087 106.711C39.9911 106.599 40.0003 106.484 40.0357 106.376C46.3565 86.5666 53.0568 65.7302 60.1366 43.8672C60.4329 42.9523 60.9007 42.0167 61.5401 41.0602C61.7177 40.7963 61.9578 40.58 62.2393 40.4305C62.5207 40.2809 62.8348 40.2026 63.1541 40.2025H93.8356C93.9829 40.2027 94.1286 40.2341 94.263 40.2946C94.3973 40.355 94.5174 40.4432 94.6153 40.5534C95.291 41.3123 95.9122 42.3441 96.4788 43.6489C99.0986 49.6682 101.482 55.8253 103.629 62.1201C106.677 71.0634 110.124 79.0008 113.601 88.0922C113.643 88.2014 113.718 88.2793 113.827 88.3261C113.914 88.3629 114.008 88.3809 114.103 88.3789C114.197 88.3768 114.29 88.3549 114.376 88.3144C114.461 88.2739 114.537 88.2158 114.598 88.1439C114.66 88.072 114.705 87.988 114.732 87.8973C119.244 72.6098 124.096 57.2366 129.289 41.7775C129.441 41.3215 129.734 40.9249 130.125 40.6436C130.517 40.3624 130.988 40.2108 131.472 40.2103H149.522C149.691 40.2096 149.858 40.2488 150.008 40.3249C150.159 40.4009 150.289 40.5115 150.389 40.6477C150.489 40.7838 150.555 40.9417 150.582 41.1082C150.608 41.2748 150.595 41.4454 150.544 41.606L129.897 106.408C129.784 106.767 129.559 107.08 129.255 107.303C128.951 107.526 128.583 107.647 128.205 107.647H95.473C95.3334 107.648 95.1967 107.605 95.0811 107.524C94.9655 107.443 94.8764 107.328 94.8258 107.195Z" fill="url(#paint2_linear_82_23884)"/>
<path d="M429.211 105.425C422.841 99.7724 425.601 90.798 427.823 83.4921C431.041 72.9037 434.048 64.0306 436.844 56.8729C437.733 54.6013 439.36 51.9399 441.725 48.8887C446.222 43.0877 452.163 40.1897 459.549 40.1949C477.633 40.2053 496.414 40.2079 515.891 40.2027C517.071 40.2027 518.363 40.2859 519.766 40.4522C527.361 41.3723 529.614 48.1012 528.327 54.8067C526.035 66.7518 521.591 78.7983 517.24 89.9013C514.55 96.755 509.451 103.687 502.379 105.995C499.655 106.889 496.032 107.479 491.51 107.764C473.67 108.908 456.332 108.872 439.495 107.655C435.909 107.395 432.761 106.816 430.053 105.917C429.744 105.814 429.458 105.647 429.211 105.425ZM449.039 83.8586C447.986 88.7474 453.039 89.8779 456.641 90.0807C464.511 90.5277 472.768 90.6239 481.412 90.3691C485.389 90.2496 488.963 89.8416 492.133 89.145C495.845 88.3341 497.272 85.9872 498.948 82.5565C501.225 77.9042 503.029 72.2981 504.359 65.7382C505.568 59.7812 503.829 57.7072 497.942 57.3953C491.746 57.0678 482.844 57.0366 471.237 57.3017C467.313 57.3901 463.859 57.8501 460.875 58.6818C457.592 59.5941 455.861 63.1339 454.645 66.1046C452.155 72.1656 450.286 78.0836 449.039 83.8586Z" fill="url(#paint3_linear_82_23884)"/>
<path d="M742.576 91.1253C742.7 91.1254 742.822 91.1543 742.933 91.2096C743.044 91.2649 743.141 91.3452 743.216 91.4442C743.291 91.5431 743.342 91.658 743.364 91.7799C743.387 91.9018 743.382 92.0273 743.348 92.1467C741.981 97.0692 740.307 102.169 738.327 107.445C737.989 108.354 737.264 108.809 736.151 108.809C704.5 108.825 687.739 108.822 685.868 108.801C678.258 108.723 668.418 108.427 660.8 105.269C659.454 104.713 658.305 103.634 657.354 102.033C654.5 97.2226 655.436 91.7334 656.863 85.8232C658.75 78.0652 661.097 71.8275 664.254 63.43C666.297 58.0033 668.379 54.0501 670.5 51.5707C674.217 47.2251 678.736 44.2804 684.059 42.7366C686.367 42.066 690.286 41.6008 695.817 41.3409C702.252 41.0342 709.072 40.8601 716.277 40.8185C728.222 40.7561 742.246 40.7561 758.35 40.8185C758.552 40.8188 758.751 40.8667 758.931 40.9584C759.112 41.0501 759.268 41.183 759.387 41.3463C759.506 41.5096 759.585 41.6987 759.618 41.8982C759.65 42.0978 759.635 42.3022 759.574 42.4949L754.818 57.4107C754.735 57.6751 754.569 57.9062 754.344 58.0703C754.12 58.2343 753.849 58.3229 753.57 58.3229C726.15 58.3281 710.016 58.3385 705.166 58.3541C699.51 58.3697 694.666 58.7986 690.632 59.6406C690.051 59.7639 689.504 60.0112 689.026 60.3658C684.932 63.43 682.383 70.4084 680.737 75.765C679.248 80.6148 678.414 82.8292 678.656 86.7901C678.749 88.2923 679.651 89.2696 681.361 89.7218C684.558 90.5691 688.935 90.9979 694.492 91.0083C725.29 91.0759 741.318 91.1149 742.576 91.1253Z" fill="url(#paint4_linear_82_23884)"/>
<path d="M201.216 57.4653C179.119 57.4549 166.592 57.4705 163.634 57.5121C163.037 57.5173 162.545 57.4601 162.161 57.3406C162.054 57.3084 161.955 57.2554 161.869 57.1847C161.783 57.114 161.713 57.027 161.661 56.9289C161.609 56.8308 161.578 56.7236 161.569 56.6135C161.56 56.5034 161.573 56.3927 161.607 56.288L166.067 42.6509C166.209 42.2121 166.489 41.8305 166.865 41.5624C167.241 41.2943 167.694 41.1538 168.157 41.1616C169.061 41.1461 180.05 41.1435 201.123 41.1538C223.225 41.1642 235.752 41.1487 238.705 41.1071C239.303 41.1019 239.794 41.159 240.178 41.2786C240.285 41.3108 240.384 41.3638 240.47 41.4345C240.556 41.5052 240.627 41.5922 240.678 41.6903C240.73 41.7884 240.761 41.8956 240.77 42.0057C240.78 42.1158 240.767 42.2265 240.732 42.3312L236.272 55.9683C236.131 56.4058 235.852 56.7864 235.477 57.0544C235.103 57.3224 234.652 57.4637 234.19 57.4575C233.281 57.4731 222.289 57.4757 201.216 57.4653Z" fill="url(#paint5_linear_82_23884)"/>
<path d="M270.026 41.1772C270.086 41.1771 270.144 41.191 270.198 41.2177C270.251 41.2443 270.297 41.2831 270.333 41.3308C270.368 41.3785 270.392 41.4339 270.403 41.4925C270.413 41.5511 270.41 41.6113 270.393 41.6684C268.75 47.1108 265.109 59.0013 259.469 77.34C258.461 80.6252 257.722 84.0429 257.255 87.5932C257.22 87.8634 257.289 88.1368 257.45 88.3573C259.087 90.5873 264.67 91.0395 267.578 91.1721C270.187 91.2864 276.16 91.3176 285.496 91.2656C291.195 91.2344 299.016 90.6653 301.573 84.529C307.366 70.6346 311.608 57.1378 316.006 42.9159C316.162 42.4122 316.475 41.9717 316.899 41.6588C317.322 41.346 317.834 41.1772 318.36 41.1772H335.966C336.128 41.1773 336.288 41.2153 336.432 41.2882C336.577 41.3612 336.702 41.4669 336.798 41.5968C336.894 41.7268 336.957 41.8772 336.983 42.036C337.01 42.1948 336.998 42.3573 336.949 42.5105C331.849 58.7544 326.688 74.0003 321.464 88.2482C320.949 89.662 319.865 92.2169 318.212 95.9127C317.391 97.7476 315.644 99.7904 312.973 102.041C305.947 107.959 295.819 109.277 287.047 109.378C283.107 109.425 274.598 109.425 261.52 109.378C257.065 109.357 252.566 109.064 248.023 108.497C244.093 107.998 239.236 107.07 236.124 104.638C235.919 104.478 235.751 104.276 235.633 104.045C234.115 101.098 233.435 98.6599 233.59 96.7314C233.814 93.9036 234.56 90.2806 235.828 85.8622C238.406 76.854 241.421 67.4455 244.873 57.6368C246.736 52.327 248.093 46.7755 250.112 41.9179C250.202 41.6991 250.355 41.5119 250.552 41.38C250.75 41.2481 250.982 41.1775 251.22 41.1772H270.026Z" fill="url(#paint6_linear_82_23884)"/>
<path d="M409.033 82.6888C412.463 84.2638 413.508 86.0571 414.233 89.8933C415.569 96.947 416.552 102.891 417.18 107.725C417.199 107.86 417.189 107.997 417.15 108.128C417.111 108.258 417.044 108.379 416.954 108.482C416.863 108.585 416.752 108.667 416.627 108.723C416.502 108.78 416.366 108.809 416.229 108.809H394.678C394.37 108.809 394.072 108.699 393.838 108.498C393.605 108.298 393.452 108.021 393.407 107.717L391.294 93.8152C391.242 93.4749 391.088 93.1583 390.853 92.9066C390.618 92.6549 390.312 92.4797 389.976 92.4039L388.09 91.9907C387.737 91.9027 387.376 91.8581 387.014 91.8582H353.283C352.806 91.8586 352.341 92.0106 351.956 92.2923C351.57 92.574 351.285 92.9707 351.139 93.4254L346.671 107.437C346.544 107.835 346.295 108.182 345.958 108.429C345.622 108.675 345.216 108.809 344.8 108.809H326.75C326.583 108.809 326.418 108.77 326.27 108.695C326.121 108.62 325.991 108.511 325.893 108.376C325.794 108.242 325.728 108.086 325.701 107.921C325.674 107.757 325.686 107.588 325.736 107.429C331.589 89.085 338.484 67.7444 346.422 43.4071C346.869 42.0348 347.729 41.3513 349.003 41.3565C359.57 41.3721 376.186 41.3746 398.85 41.3643C400.648 41.3643 402.525 41.3357 404.479 41.2785C410.005 41.1069 415.32 41.7073 420.424 43.0796C421.807 43.4539 422.922 43.9711 423.769 44.6312C423.965 44.7859 424.134 44.9759 424.268 45.1926C426.191 48.3738 426.75 51.9709 425.944 55.9838C424.832 61.5041 422.773 67.2895 419.769 73.3401C417.534 77.8416 413.968 80.7811 409.071 82.1586C409.015 82.1733 408.964 82.2054 408.926 82.2505C408.889 82.2955 408.866 82.3512 408.862 82.4097C408.858 82.4682 408.872 82.5266 408.902 82.5766C408.933 82.6267 408.978 82.6659 409.033 82.6888ZM358.242 74.5876C358.393 74.65 358.767 74.6838 359.365 74.689C366.029 74.7462 374.094 74.7098 383.559 74.5798C388.144 74.5174 392.497 74.1406 396.62 73.4492C397.451 73.3079 398.212 72.881 398.772 72.2407C399.77 71.1023 400.565 69.6105 401.157 67.7652C402.233 64.4046 404.354 60.1162 400.058 59.1416C398.545 58.7985 396.978 58.627 395.356 58.627C377.304 58.627 366.978 58.627 364.379 58.627C364.137 58.627 363.898 58.6802 363.677 58.7829C362.585 59.3079 361.85 60.189 361.47 61.4261C360.249 65.3819 358.996 69.3922 357.712 73.457C357.644 73.6788 357.66 73.918 357.758 74.1273C357.856 74.3366 358.029 74.5009 358.242 74.5876Z" fill="url(#paint7_linear_82_23884)"/>
<path d="M849.941 42.768L845.536 56.6C845.457 56.8475 845.3 57.0632 845.09 57.216C844.88 57.3688 844.627 57.4507 844.367 57.4499H772.275C772.082 57.4505 771.891 57.4054 771.719 57.3183C771.546 57.2312 771.397 57.1045 771.283 56.9486C771.169 56.7927 771.093 56.612 771.062 56.4214C771.031 56.2307 771.046 56.0354 771.105 55.8515L775.51 42.0195C775.59 41.772 775.746 41.5562 775.956 41.4034C776.167 41.2506 776.42 41.1687 776.68 41.1696H848.772C848.965 41.1689 849.156 41.214 849.328 41.3011C849.5 41.3883 849.65 41.5149 849.764 41.6708C849.878 41.8267 849.953 42.0074 849.984 42.1981C850.015 42.3888 850.001 42.5841 849.941 42.768Z" fill="url(#paint8_linear_82_23884)"/>
<path d="M192.897 66.8062C217.635 66.801 230.396 66.814 231.181 66.8452C231.307 66.8455 231.431 66.8754 231.543 66.9326C231.656 66.9897 231.753 67.0725 231.827 67.1742C231.902 67.276 231.951 67.3938 231.972 67.5181C231.992 67.6425 231.983 67.7699 231.945 67.89L228.124 80.1471C227.986 80.5994 227.705 80.9952 227.323 81.276C226.941 81.5568 226.478 81.7077 226.004 81.7065C225.661 81.7169 214.594 81.7221 192.804 81.7221C168.071 81.7221 155.31 81.7065 154.52 81.6753C154.394 81.675 154.27 81.6451 154.157 81.5879C154.045 81.5308 153.948 81.448 153.873 81.3463C153.799 81.2445 153.75 81.1268 153.729 81.0024C153.709 80.8781 153.718 80.7506 153.756 80.6305L157.576 68.3735C157.717 67.9225 157.998 67.5285 158.38 67.2492C158.762 66.9699 159.223 66.8201 159.697 66.8218C160.046 66.8114 171.112 66.8062 192.897 66.8062Z" fill="url(#paint9_linear_82_23884)"/>
<path d="M802.153 81.7219C777.416 81.7219 764.654 81.7063 763.87 81.6751C763.744 81.6748 763.619 81.6449 763.507 81.5878C763.395 81.5306 763.297 81.4478 763.223 81.3461C763.149 81.2444 763.099 81.1266 763.079 81.0022C763.058 80.8779 763.068 80.7505 763.105 80.6303L766.926 68.3733C767.065 67.9209 767.346 67.5251 767.728 67.2444C768.11 66.9636 768.572 66.8127 769.047 66.8139C769.395 66.8035 780.462 66.7983 802.247 66.7983C826.984 66.7983 839.748 66.8139 840.538 66.8451C840.664 66.8465 840.787 66.8774 840.898 66.935C841.01 66.9927 841.106 67.0756 841.179 67.1772C841.253 67.2787 841.302 67.3961 841.322 67.5198C841.342 67.6436 841.332 67.7703 841.295 67.8899L837.474 80.1469C837.335 80.5993 837.054 80.995 836.672 81.2758C836.29 81.5566 835.828 81.7075 835.353 81.7063C835.01 81.7167 823.943 81.7219 802.153 81.7219Z" fill="url(#paint10_linear_82_23884)"/>
<path d="M184.882 91.8661C207.051 91.8661 219.618 91.8453 222.581 91.8037C223.184 91.7985 223.677 91.8557 224.062 91.9752C224.169 92.0085 224.268 92.0623 224.354 92.1335C224.439 92.2047 224.51 92.2917 224.562 92.3897C224.613 92.4877 224.644 92.5946 224.654 92.7041C224.663 92.8137 224.65 92.9237 224.616 93.0279L220.148 106.712C220.006 107.151 219.727 107.534 219.351 107.803C218.975 108.073 218.522 108.215 218.058 108.209C217.149 108.224 206.124 108.232 184.983 108.232C162.808 108.227 150.239 108.245 147.276 108.287C146.679 108.292 146.187 108.235 145.803 108.115C145.695 108.083 145.596 108.029 145.509 107.959C145.422 107.888 145.351 107.801 145.299 107.703C145.246 107.605 145.214 107.498 145.204 107.388C145.195 107.278 145.207 107.167 145.241 107.063L149.717 93.3787C149.859 92.9392 150.138 92.5566 150.514 92.2871C150.89 92.0177 151.343 91.8756 151.807 91.8817C152.716 91.8661 163.741 91.8609 184.882 91.8661Z" fill="url(#paint11_linear_82_23884)"/>
<path d="M794.232 91.8659C816.392 91.8711 828.953 91.8529 831.916 91.8113C832.513 91.8061 833.007 91.8633 833.397 91.9829C833.504 92.0162 833.603 92.0699 833.688 92.1411C833.774 92.2123 833.845 92.2994 833.896 92.3973C833.948 92.4953 833.979 92.6022 833.989 92.7117C833.998 92.8213 833.985 92.9313 833.951 93.0355L829.483 106.712C829.341 107.151 829.062 107.534 828.686 107.803C828.31 108.073 827.857 108.215 827.393 108.209C826.484 108.224 815.464 108.229 794.334 108.224C772.174 108.219 759.616 108.237 756.658 108.279C756.055 108.289 755.561 108.235 755.177 108.115C755.069 108.082 754.969 108.028 754.883 107.956C754.796 107.884 754.725 107.796 754.674 107.698C754.622 107.599 754.591 107.491 754.582 107.38C754.574 107.27 754.587 107.159 754.623 107.055L759.091 93.3785C759.234 92.9404 759.514 92.5596 759.89 92.2916C760.266 92.0237 760.718 91.8827 761.18 91.8893C762.09 91.8737 773.107 91.8659 794.232 91.8659Z" fill="url(#paint12_linear_82_23884)"/>
<path d="M566.14 89.6162C566.089 89.558 566.055 89.4864 566.042 89.4099C564.925 81.9871 564.028 76.6721 563.352 73.4649C561.668 65.4729 560.74 54.6739 559.04 46.3622C558.609 44.2518 558.141 42.5936 557.637 41.3877C557.561 41.2076 557.433 41.0539 557.271 40.9458C557.109 40.8376 556.919 40.7798 556.725 40.7795H535.236C535.206 40.779 535.176 40.7852 535.148 40.7977C535.121 40.8102 535.096 40.8288 535.077 40.8519C535.057 40.8751 535.043 40.9023 535.036 40.9316C535.028 40.9609 535.027 40.9915 535.033 41.0212C539.925 71.0244 542.612 87.471 543.095 90.3612C544.234 97.181 545.38 102.865 546.534 107.413C546.595 107.648 546.731 107.856 546.921 108.004C547.112 108.152 547.346 108.232 547.587 108.232H573.099C573.625 108.232 574.144 108.115 574.619 107.89C575.094 107.665 575.512 107.337 575.843 106.93L627.649 41.1942C628.018 40.7254 627.685 40.037 627.088 40.037L607.367 40.0371C607.152 40.0371 606.948 40.134 606.813 40.3011L566.744 89.6126C566.695 89.6714 566.63 89.7145 566.557 89.7367C566.484 89.7589 566.406 89.7594 566.332 89.7381C566.258 89.7167 566.192 89.6744 566.14 89.6162Z" stroke="white" stroke-opacity="0.4" stroke-width="2" mask="url(#path-1-inside-1_82_23884)"/>
<path d="M650.289 76.7398C647.553 85.5895 644.223 95.2501 640.824 105.69C640.46 106.808 639.628 107.364 638.329 107.359C634.81 107.359 628.603 107.362 619.709 107.367C619.539 107.366 619.371 107.324 619.22 107.246C619.069 107.168 618.939 107.055 618.84 106.916C618.741 106.778 618.676 106.618 618.651 106.449C618.626 106.281 618.641 106.109 618.696 105.948C622.844 93.6699 626.662 81.8963 630.149 70.6269C632.894 61.7772 636.223 52.1245 639.623 41.6764C639.987 40.5588 640.819 40.0026 642.118 40.0078C645.637 40.0078 651.844 40.0052 660.737 40C660.908 40.001 661.075 40.0423 661.226 40.1207C661.378 40.199 661.508 40.3121 661.607 40.4506C661.706 40.5891 661.77 40.7491 661.795 40.9175C661.821 41.0858 661.805 41.2577 661.751 41.4191C657.598 53.7021 653.777 65.4757 650.289 76.7398Z" stroke="white" stroke-opacity="0.4" stroke-width="2" mask="url(#path-1-inside-1_82_23884)"/>
<path d="M94.8258 107.195L77.0095 60.3814C76.9762 60.2928 76.9173 60.2161 76.8402 60.1612C76.7631 60.1063 76.6714 60.0756 76.5768 60.0731C76.4822 60.0706 76.389 60.0963 76.3091 60.1471C76.2292 60.1979 76.1663 60.2713 76.1284 60.358C75.4994 61.7511 75.1538 62.5516 75.0914 62.7595C69.9453 79.2113 65.4256 93.4644 61.5323 105.519C61.1528 106.704 60.4355 107.302 59.3803 107.312C53.0958 107.385 46.8763 107.39 40.7218 107.328C40.6072 107.326 40.4945 107.297 40.3929 107.244C40.2913 107.191 40.2037 107.115 40.1369 107.023C40.0702 106.93 40.0262 106.823 40.0087 106.711C39.9911 106.599 40.0003 106.484 40.0357 106.376C46.3565 86.5666 53.0568 65.7302 60.1366 43.8672C60.4329 42.9523 60.9007 42.0167 61.5401 41.0602C61.7177 40.7963 61.9578 40.58 62.2393 40.4305C62.5207 40.2809 62.8348 40.2026 63.1541 40.2025H93.8356C93.9829 40.2027 94.1286 40.2341 94.263 40.2946C94.3973 40.355 94.5174 40.4432 94.6153 40.5534C95.291 41.3123 95.9122 42.3441 96.4788 43.6489C99.0986 49.6682 101.482 55.8253 103.629 62.1201C106.677 71.0634 110.124 79.0008 113.601 88.0922C113.643 88.2014 113.718 88.2793 113.827 88.3261C113.914 88.3629 114.008 88.3809 114.103 88.3789C114.197 88.3768 114.29 88.3549 114.376 88.3144C114.461 88.2739 114.537 88.2158 114.598 88.1439C114.66 88.072 114.705 87.988 114.732 87.8973C119.244 72.6098 124.096 57.2366 129.289 41.7775C129.441 41.3215 129.734 40.9249 130.125 40.6436C130.517 40.3624 130.988 40.2108 131.472 40.2103H149.522C149.691 40.2096 149.858 40.2488 150.008 40.3249C150.159 40.4009 150.289 40.5115 150.389 40.6477C150.489 40.7838 150.555 40.9417 150.582 41.1082C150.608 41.2748 150.595 41.4454 150.544 41.606L129.897 106.408C129.784 106.767 129.559 107.08 129.255 107.303C128.951 107.526 128.583 107.647 128.205 107.647H95.473C95.3334 107.648 95.1967 107.605 95.0811 107.524C94.9655 107.443 94.8764 107.328 94.8258 107.195Z" stroke="white" stroke-opacity="0.4" stroke-width="2" mask="url(#path-1-inside-1_82_23884)"/>
<path d="M429.211 105.425C422.841 99.7724 425.601 90.798 427.823 83.4921C431.041 72.9037 434.048 64.0306 436.844 56.8729C437.733 54.6013 439.36 51.9399 441.725 48.8887C446.222 43.0877 452.163 40.1897 459.549 40.1949C477.633 40.2053 496.414 40.2079 515.891 40.2027C517.071 40.2027 518.363 40.2859 519.766 40.4522C527.361 41.3723 529.614 48.1012 528.327 54.8067C526.035 66.7518 521.591 78.7983 517.24 89.9013C514.55 96.755 509.451 103.687 502.379 105.995C499.655 106.889 496.032 107.479 491.51 107.764C473.67 108.908 456.332 108.872 439.495 107.655C435.909 107.395 432.761 106.816 430.053 105.917C429.744 105.814 429.458 105.647 429.211 105.425ZM449.039 83.8586C447.986 88.7474 453.039 89.8779 456.641 90.0807C464.511 90.5277 472.768 90.6239 481.412 90.3691C485.389 90.2496 488.963 89.8416 492.133 89.145C495.845 88.3341 497.272 85.9872 498.948 82.5565C501.225 77.9042 503.029 72.2981 504.359 65.7382C505.568 59.7812 503.829 57.7072 497.942 57.3953C491.746 57.0678 482.844 57.0366 471.237 57.3017C467.313 57.3901 463.859 57.8501 460.875 58.6818C457.592 59.5941 455.861 63.1339 454.645 66.1046C452.155 72.1656 450.286 78.0836 449.039 83.8586Z" stroke="white" stroke-opacity="0.4" stroke-width="2" mask="url(#path-1-inside-1_82_23884)"/>
<path d="M742.576 91.1253C742.7 91.1254 742.822 91.1543 742.933 91.2096C743.044 91.2649 743.141 91.3452 743.216 91.4442C743.291 91.5431 743.342 91.658 743.364 91.7799C743.387 91.9018 743.382 92.0273 743.348 92.1467C741.981 97.0692 740.307 102.169 738.327 107.445C737.989 108.354 737.264 108.809 736.151 108.809C704.5 108.825 687.739 108.822 685.868 108.801C678.258 108.723 668.418 108.427 660.8 105.269C659.454 104.713 658.305 103.634 657.354 102.033C654.5 97.2226 655.436 91.7334 656.863 85.8232C658.75 78.0652 661.097 71.8275 664.254 63.43C666.297 58.0033 668.379 54.0501 670.5 51.5707C674.217 47.2251 678.736 44.2804 684.059 42.7366C686.367 42.066 690.286 41.6008 695.817 41.3409C702.252 41.0342 709.072 40.8601 716.277 40.8185C728.222 40.7561 742.246 40.7561 758.35 40.8185C758.552 40.8188 758.751 40.8667 758.931 40.9584C759.112 41.0501 759.268 41.183 759.387 41.3463C759.506 41.5096 759.585 41.6987 759.618 41.8982C759.65 42.0978 759.635 42.3022 759.574 42.4949L754.818 57.4107C754.735 57.6751 754.569 57.9062 754.344 58.0703C754.12 58.2343 753.849 58.3229 753.57 58.3229C726.15 58.3281 710.016 58.3385 705.166 58.3541C699.51 58.3697 694.666 58.7986 690.632 59.6406C690.051 59.7639 689.504 60.0112 689.026 60.3658C684.932 63.43 682.383 70.4084 680.737 75.765C679.248 80.6148 678.414 82.8292 678.656 86.7901C678.749 88.2923 679.651 89.2696 681.361 89.7218C684.558 90.5691 688.935 90.9979 694.492 91.0083C725.29 91.0759 741.318 91.1149 742.576 91.1253Z" stroke="white" stroke-opacity="0.4" stroke-width="2" mask="url(#path-1-inside-1_82_23884)"/>
<path d="M201.216 57.4653C179.119 57.4549 166.592 57.4705 163.634 57.5121C163.037 57.5173 162.545 57.4601 162.161 57.3406C162.054 57.3084 161.955 57.2554 161.869 57.1847C161.783 57.114 161.713 57.027 161.661 56.9289C161.609 56.8308 161.578 56.7236 161.569 56.6135C161.56 56.5034 161.573 56.3927 161.607 56.288L166.067 42.6509C166.209 42.2121 166.489 41.8305 166.865 41.5624C167.241 41.2943 167.694 41.1538 168.157 41.1616C169.061 41.1461 180.05 41.1435 201.123 41.1538C223.225 41.1642 235.752 41.1487 238.705 41.1071C239.303 41.1019 239.794 41.159 240.178 41.2786C240.285 41.3108 240.384 41.3638 240.47 41.4345C240.556 41.5052 240.627 41.5922 240.678 41.6903C240.73 41.7884 240.761 41.8956 240.77 42.0057C240.78 42.1158 240.767 42.2265 240.732 42.3312L236.272 55.9683C236.131 56.4058 235.852 56.7864 235.477 57.0544C235.103 57.3224 234.652 57.4637 234.19 57.4575C233.281 57.4731 222.289 57.4757 201.216 57.4653Z" stroke="white" stroke-opacity="0.4" stroke-width="2" mask="url(#path-1-inside-1_82_23884)"/>
<path d="M270.026 41.1772C270.086 41.1771 270.144 41.191 270.198 41.2177C270.251 41.2443 270.297 41.2831 270.333 41.3308C270.368 41.3785 270.392 41.4339 270.403 41.4925C270.413 41.5511 270.41 41.6113 270.393 41.6684C268.75 47.1108 265.109 59.0013 259.469 77.34C258.461 80.6252 257.722 84.0429 257.255 87.5932C257.22 87.8634 257.289 88.1368 257.45 88.3573C259.087 90.5873 264.67 91.0395 267.578 91.1721C270.187 91.2864 276.16 91.3176 285.496 91.2656C291.195 91.2344 299.016 90.6653 301.573 84.529C307.366 70.6346 311.608 57.1378 316.006 42.9159C316.162 42.4122 316.475 41.9717 316.899 41.6588C317.322 41.346 317.834 41.1772 318.36 41.1772H335.966C336.128 41.1773 336.288 41.2153 336.432 41.2882C336.577 41.3612 336.702 41.4669 336.798 41.5968C336.894 41.7268 336.957 41.8772 336.983 42.036C337.01 42.1948 336.998 42.3573 336.949 42.5105C331.849 58.7544 326.688 74.0003 321.464 88.2482C320.949 89.662 319.865 92.2169 318.212 95.9127C317.391 97.7476 315.644 99.7904 312.973 102.041C305.947 107.959 295.819 109.277 287.047 109.378C283.107 109.425 274.598 109.425 261.52 109.378C257.065 109.357 252.566 109.064 248.023 108.497C244.093 107.998 239.236 107.07 236.124 104.638C235.919 104.478 235.751 104.276 235.633 104.045C234.115 101.098 233.435 98.6599 233.59 96.7314C233.814 93.9036 234.56 90.2806 235.828 85.8622C238.406 76.854 241.421 67.4455 244.873 57.6368C246.736 52.327 248.093 46.7755 250.112 41.9179C250.202 41.6991 250.355 41.5119 250.552 41.38C250.75 41.2481 250.982 41.1775 251.22 41.1772H270.026Z" stroke="white" stroke-opacity="0.4" stroke-width="2" mask="url(#path-1-inside-1_82_23884)"/>
<path d="M409.033 82.6888C412.463 84.2638 413.508 86.0571 414.233 89.8933C415.569 96.947 416.552 102.891 417.18 107.725C417.199 107.86 417.189 107.997 417.15 108.128C417.111 108.258 417.044 108.379 416.954 108.482C416.863 108.585 416.752 108.667 416.627 108.723C416.502 108.78 416.366 108.809 416.229 108.809H394.678C394.37 108.809 394.072 108.699 393.838 108.498C393.605 108.298 393.452 108.021 393.407 107.717L391.294 93.8152C391.242 93.4749 391.088 93.1583 390.853 92.9066C390.618 92.6549 390.312 92.4797 389.976 92.4039L388.09 91.9907C387.737 91.9027 387.376 91.8581 387.014 91.8582H353.283C352.806 91.8586 352.341 92.0106 351.956 92.2923C351.57 92.574 351.285 92.9707 351.139 93.4254L346.671 107.437C346.544 107.835 346.295 108.182 345.958 108.429C345.622 108.675 345.216 108.809 344.8 108.809H326.75C326.583 108.809 326.418 108.77 326.27 108.695C326.121 108.62 325.991 108.511 325.893 108.376C325.794 108.242 325.728 108.086 325.701 107.921C325.674 107.757 325.686 107.588 325.736 107.429C331.589 89.085 338.484 67.7444 346.422 43.4071C346.869 42.0348 347.729 41.3513 349.003 41.3565C359.57 41.3721 376.186 41.3746 398.85 41.3643C400.648 41.3643 402.525 41.3357 404.479 41.2785C410.005 41.1069 415.32 41.7073 420.424 43.0796C421.807 43.4539 422.922 43.9711 423.769 44.6312C423.965 44.7859 424.134 44.9759 424.268 45.1926C426.191 48.3738 426.75 51.9709 425.944 55.9838C424.832 61.5041 422.773 67.2895 419.769 73.3401C417.534 77.8416 413.968 80.7811 409.071 82.1586C409.015 82.1733 408.964 82.2054 408.926 82.2505C408.889 82.2955 408.866 82.3512 408.862 82.4097C408.858 82.4682 408.872 82.5266 408.902 82.5766C408.933 82.6267 408.978 82.6659 409.033 82.6888ZM358.242 74.5876C358.393 74.65 358.767 74.6838 359.365 74.689C366.029 74.7462 374.094 74.7098 383.559 74.5798C388.144 74.5174 392.497 74.1406 396.62 73.4492C397.451 73.3079 398.212 72.881 398.772 72.2407C399.77 71.1023 400.565 69.6105 401.157 67.7652C402.233 64.4046 404.354 60.1162 400.058 59.1416C398.545 58.7985 396.978 58.627 395.356 58.627C377.304 58.627 366.978 58.627 364.379 58.627C364.137 58.627 363.898 58.6802 363.677 58.7829C362.585 59.3079 361.85 60.189 361.47 61.4261C360.249 65.3819 358.996 69.3922 357.712 73.457C357.644 73.6788 357.66 73.918 357.758 74.1273C357.856 74.3366 358.029 74.5009 358.242 74.5876Z" stroke="white" stroke-opacity="0.4" stroke-width="2" mask="url(#path-1-inside-1_82_23884)"/>
<path d="M849.941 42.768L845.536 56.6C845.457 56.8475 845.3 57.0632 845.09 57.216C844.88 57.3688 844.627 57.4507 844.367 57.4499H772.275C772.082 57.4505 771.891 57.4054 771.719 57.3183C771.546 57.2312 771.397 57.1045 771.283 56.9486C771.169 56.7927 771.093 56.612 771.062 56.4214C771.031 56.2307 771.046 56.0354 771.105 55.8515L775.51 42.0195C775.59 41.772 775.746 41.5562 775.956 41.4034C776.167 41.2506 776.42 41.1687 776.68 41.1696H848.772C848.965 41.1689 849.156 41.214 849.328 41.3011C849.5 41.3883 849.65 41.5149 849.764 41.6708C849.878 41.8267 849.953 42.0074 849.984 42.1981C850.015 42.3888 850.001 42.5841 849.941 42.768Z" stroke="white" stroke-opacity="0.4" stroke-width="2" mask="url(#path-1-inside-1_82_23884)"/>
<path d="M192.897 66.8062C217.635 66.801 230.396 66.814 231.181 66.8452C231.307 66.8455 231.431 66.8754 231.543 66.9326C231.656 66.9897 231.753 67.0725 231.827 67.1742C231.902 67.276 231.951 67.3938 231.972 67.5181C231.992 67.6425 231.983 67.7699 231.945 67.89L228.124 80.1471C227.986 80.5994 227.705 80.9952 227.323 81.276C226.941 81.5568 226.478 81.7077 226.004 81.7065C225.661 81.7169 214.594 81.7221 192.804 81.7221C168.071 81.7221 155.31 81.7065 154.52 81.6753C154.394 81.675 154.27 81.6451 154.157 81.5879C154.045 81.5308 153.948 81.448 153.873 81.3463C153.799 81.2445 153.75 81.1268 153.729 81.0024C153.709 80.8781 153.718 80.7506 153.756 80.6305L157.576 68.3735C157.717 67.9225 157.998 67.5285 158.38 67.2492C158.762 66.9699 159.223 66.8201 159.697 66.8218C160.046 66.8114 171.112 66.8062 192.897 66.8062Z" stroke="white" stroke-opacity="0.4" stroke-width="2" mask="url(#path-1-inside-1_82_23884)"/>
<path d="M802.153 81.7219C777.416 81.7219 764.654 81.7063 763.87 81.6751C763.744 81.6748 763.619 81.6449 763.507 81.5878C763.395 81.5306 763.297 81.4478 763.223 81.3461C763.149 81.2444 763.099 81.1266 763.079 81.0022C763.058 80.8779 763.068 80.7505 763.105 80.6303L766.926 68.3733C767.065 67.9209 767.346 67.5251 767.728 67.2444C768.11 66.9636 768.572 66.8127 769.047 66.8139C769.395 66.8035 780.462 66.7983 802.247 66.7983C826.984 66.7983 839.748 66.8139 840.538 66.8451C840.664 66.8465 840.787 66.8774 840.898 66.935C841.01 66.9927 841.106 67.0756 841.179 67.1772C841.253 67.2787 841.302 67.3961 841.322 67.5198C841.342 67.6436 841.332 67.7703 841.295 67.8899L837.474 80.1469C837.335 80.5993 837.054 80.995 836.672 81.2758C836.29 81.5566 835.828 81.7075 835.353 81.7063C835.01 81.7167 823.943 81.7219 802.153 81.7219Z" stroke="white" stroke-opacity="0.4" stroke-width="2" mask="url(#path-1-inside-1_82_23884)"/>
<path d="M184.882 91.8661C207.051 91.8661 219.618 91.8453 222.581 91.8037C223.184 91.7985 223.677 91.8557 224.062 91.9752C224.169 92.0085 224.268 92.0623 224.354 92.1335C224.439 92.2047 224.51 92.2917 224.562 92.3897C224.613 92.4877 224.644 92.5946 224.654 92.7041C224.663 92.8137 224.65 92.9237 224.616 93.0279L220.148 106.712C220.006 107.151 219.727 107.534 219.351 107.803C218.975 108.073 218.522 108.215 218.058 108.209C217.149 108.224 206.124 108.232 184.983 108.232C162.808 108.227 150.239 108.245 147.276 108.287C146.679 108.292 146.187 108.235 145.803 108.115C145.695 108.083 145.596 108.029 145.509 107.959C145.422 107.888 145.351 107.801 145.299 107.703C145.246 107.605 145.214 107.498 145.204 107.388C145.195 107.278 145.207 107.167 145.241 107.063L149.717 93.3787C149.859 92.9392 150.138 92.5566 150.514 92.2871C150.89 92.0177 151.343 91.8756 151.807 91.8817C152.716 91.8661 163.741 91.8609 184.882 91.8661Z" stroke="white" stroke-opacity="0.4" stroke-width="2" mask="url(#path-1-inside-1_82_23884)"/>
<path d="M794.232 91.8659C816.392 91.8711 828.953 91.8529 831.916 91.8113C832.513 91.8061 833.007 91.8633 833.397 91.9829C833.504 92.0162 833.603 92.0699 833.688 92.1411C833.774 92.2123 833.845 92.2994 833.896 92.3973C833.948 92.4953 833.979 92.6022 833.989 92.7117C833.998 92.8213 833.985 92.9313 833.951 93.0355L829.483 106.712C829.341 107.151 829.062 107.534 828.686 107.803C828.31 108.073 827.857 108.215 827.393 108.209C826.484 108.224 815.464 108.229 794.334 108.224C772.174 108.219 759.616 108.237 756.658 108.279C756.055 108.289 755.561 108.235 755.177 108.115C755.069 108.082 754.969 108.028 754.883 107.956C754.796 107.884 754.725 107.796 754.674 107.698C754.622 107.599 754.591 107.491 754.582 107.38C754.574 107.27 754.587 107.159 754.623 107.055L759.091 93.3785C759.234 92.9404 759.514 92.5596 759.89 92.2916C760.266 92.0237 760.718 91.8827 761.18 91.8893C762.09 91.8737 773.107 91.8659 794.232 91.8659Z" stroke="white" stroke-opacity="0.4" stroke-width="2" mask="url(#path-1-inside-1_82_23884)"/>
</g>
<defs>
<filter id="filter0_dd_82_23884" x="0" y="0" width="890" height="149.414" filterUnits="userSpaceOnUse" color-interpolation-filters="sRGB">
<feFlood flood-opacity="0" result="BackgroundImageFix"/>
<feColorMatrix in="SourceAlpha" type="matrix" values="0 0 0 0 0 0 0 0 0 0 0 0 0 0 0 0 0 0 127 0" result="hardAlpha"/>
<feOffset/>
<feGaussianBlur stdDeviation="20"/>
<feComposite in2="hardAlpha" operator="out"/>
<feColorMatrix type="matrix" values="0 0 0 0 0.0901961 0 0 0 0 0.772549 0 0 0 0 0.764706 0 0 0 0.3 0"/>
<feBlend mode="normal" in2="BackgroundImageFix" result="effect1_dropShadow_82_23884"/>
<feColorMatrix in="SourceAlpha" type="matrix" values="0 0 0 0 0 0 0 0 0 0 0 0 0 0 0 0 0 0 127 0" result="hardAlpha"/>
<feOffset/>
<feGaussianBlur stdDeviation="5"/>
<feComposite in2="hardAlpha" operator="out"/>
<feColorMatrix type="matrix" values="0 0 0 0 0.0901961 0 0 0 0 0.772549 0 0 0 0 0.764706 0 0 0 0.6 0"/>
<feBlend mode="normal" in2="effect1_dropShadow_82_23884" result="effect2_dropShadow_82_23884"/>
<feBlend mode="normal" in="SourceGraphic" in2="effect2_dropShadow_82_23884" result="shape"/>
</filter>
<linearGradient id="paint0_linear_82_23884" x1="917.5" y1="21" x2="12" y2="131.5" gradientUnits="userSpaceOnUse">
<stop stop-color="#A6F9F8"/>
<stop offset="1" stop-color="#17C5C3"/>
</linearGradient>
<linearGradient id="paint1_linear_82_23884" x1="917.5" y1="21" x2="12" y2="131.5" gradientUnits="userSpaceOnUse">
<stop stop-color="#A6F9F8"/>
<stop offset="1" stop-color="#17C5C3"/>
</linearGradient>
<linearGradient id="paint2_linear_82_23884" x1="917.5" y1="21" x2="12" y2="131.5" gradientUnits="userSpaceOnUse">
<stop stop-color="#A6F9F8"/>
<stop offset="1" stop-color="#17C5C3"/>
</linearGradient>
<linearGradient id="paint3_linear_82_23884" x1="917.5" y1="21" x2="12" y2="131.5" gradientUnits="userSpaceOnUse">
<stop stop-color="#A6F9F8"/>
<stop offset="1" stop-color="#17C5C3"/>
</linearGradient>
<linearGradient id="paint4_linear_82_23884" x1="917.5" y1="21" x2="12" y2="131.5" gradientUnits="userSpaceOnUse">
<stop stop-color="#A6F9F8"/>
<stop offset="1" stop-color="#17C5C3"/>
</linearGradient>
<linearGradient id="paint5_linear_82_23884" x1="917.5" y1="21" x2="12" y2="131.5" gradientUnits="userSpaceOnUse">
<stop stop-color="#A6F9F8"/>
<stop offset="1" stop-color="#17C5C3"/>
</linearGradient>
<linearGradient id="paint6_linear_82_23884" x1="917.5" y1="21" x2="12" y2="131.5" gradientUnits="userSpaceOnUse">
<stop stop-color="#A6F9F8"/>
<stop offset="1" stop-color="#17C5C3"/>
</linearGradient>
<linearGradient id="paint7_linear_82_23884" x1="917.5" y1="21" x2="12" y2="131.5" gradientUnits="userSpaceOnUse">
<stop stop-color="#A6F9F8"/>
<stop offset="1" stop-color="#17C5C3"/>
</linearGradient>
<linearGradient id="paint8_linear_82_23884" x1="917.5" y1="21" x2="12" y2="131.5" gradientUnits="userSpaceOnUse">
<stop stop-color="#A6F9F8"/>
<stop offset="1" stop-color="#17C5C3"/>
</linearGradient>
<linearGradient id="paint9_linear_82_23884" x1="917.5" y1="21" x2="12" y2="131.5" gradientUnits="userSpaceOnUse">
<stop stop-color="#A6F9F8"/>
<stop offset="1" stop-color="#17C5C3"/>
</linearGradient>
<linearGradient id="paint10_linear_82_23884" x1="917.5" y1="21" x2="12" y2="131.5" gradientUnits="userSpaceOnUse">
<stop stop-color="#A6F9F8"/>
<stop offset="1" stop-color="#17C5C3"/>
</linearGradient>
<linearGradient id="paint11_linear_82_23884" x1="917.5" y1="21" x2="12" y2="131.5" gradientUnits="userSpaceOnUse">
<stop stop-color="#A6F9F8"/>
<stop offset="1" stop-color="#17C5C3"/>
</linearGradient>
<linearGradient id="paint12_linear_82_23884" x1="917.5" y1="21" x2="12" y2="131.5" gradientUnits="userSpaceOnUse">
<stop stop-color="#A6F9F8"/>
<stop offset="1" stop-color="#17C5C3"/>
</linearGradient>
</defs>
</svg>
