<svg width="300" height="26" viewBox="0 0 300 26" fill="none" xmlns="http://www.w3.org/2000/svg">
<path d="M194.867 18.5846C194.848 18.5628 194.835 18.536 194.83 18.5074C194.417 15.727 194.084 13.7362 193.834 12.5349C193.21 9.54132 192.867 5.49638 192.237 2.38309C192.077 1.5926 191.904 0.971495 191.717 0.519785C191.689 0.452321 191.642 0.394758 191.582 0.354255C191.522 0.313752 191.451 0.292097 191.38 0.291984H183.421C183.41 0.291772 183.398 0.294099 183.388 0.298793C183.378 0.303486 183.369 0.310428 183.362 0.319109C183.355 0.32779 183.349 0.33799 183.347 0.348962C183.344 0.359935 183.343 0.371402 183.346 0.382521C185.157 11.6207 186.153 17.7811 186.332 18.8637C186.753 21.4182 187.178 23.5472 187.605 25.2509C187.628 25.3388 187.678 25.4166 187.749 25.4721C187.819 25.5276 187.906 25.5577 187.995 25.5575H197.444C197.639 25.5575 197.831 25.5137 198.007 25.4293C198.183 25.3449 198.338 25.2221 198.46 25.0698L217.648 0.447302C217.785 0.271699 217.661 0.0138606 217.44 0.0138613L210.136 0.0138837C210.056 0.013884 209.981 0.05021 209.931 0.112775L195.09 18.5833C195.072 18.6053 195.048 18.6214 195.021 18.6298C194.994 18.6381 194.965 18.6383 194.938 18.6303C194.911 18.6223 194.886 18.6064 194.867 18.5846Z" fill="white"/>
<path d="M226.033 13.7616C225.019 17.0764 223.786 20.6949 222.527 24.6055C222.393 25.0241 222.085 25.2325 221.603 25.2305C220.3 25.2305 218.001 25.2315 214.707 25.2334C214.644 25.2331 214.582 25.2176 214.526 25.1882C214.47 25.1589 214.422 25.1165 214.385 25.0647C214.348 25.0128 214.325 24.9528 214.315 24.8898C214.306 24.8267 214.312 24.7623 214.332 24.7019C215.868 20.103 217.282 15.693 218.574 11.4719C219.59 8.15705 220.823 4.54143 222.083 0.627916C222.217 0.209305 222.525 0.000974136 223.007 0.00292116C224.31 0.00292116 226.609 0.00194702 229.903 0C229.966 0.000368131 230.028 0.015858 230.084 0.0451966C230.14 0.0745353 230.188 0.116887 230.225 0.16877C230.261 0.220653 230.285 0.280588 230.295 0.343652C230.304 0.406715 230.298 0.471106 230.278 0.531537C228.74 5.13235 227.325 9.54236 226.033 13.7616Z" fill="white"/>
<path d="M20.3059 25.1691L13.7072 7.63421C13.6949 7.60102 13.6731 7.57231 13.6445 7.55173C13.616 7.53116 13.582 7.51967 13.547 7.51873C13.5119 7.51779 13.4774 7.52744 13.4478 7.54645C13.4182 7.56546 13.3949 7.59297 13.3809 7.62545C13.1479 8.14725 13.0199 8.44709 12.9968 8.52497C11.0909 14.6873 9.41689 20.026 7.97491 24.5412C7.83437 24.9851 7.56869 25.209 7.17788 25.2129C4.8503 25.2402 2.54679 25.2421 0.26735 25.2188C0.224885 25.218 0.183161 25.2072 0.145534 25.1874C0.107906 25.1675 0.0754265 25.1391 0.050707 25.1045C0.0259874 25.0698 0.00971808 25.0299 0.00320767 24.9878C-0.00330274 24.9458 0.000127366 24.9029 0.0132224 24.8624C2.35427 17.4423 4.83586 9.6377 7.45799 1.44852C7.56773 1.10584 7.741 0.755377 7.9778 0.397124C8.0436 0.298258 8.13253 0.217254 8.23676 0.161237C8.34099 0.105219 8.45734 0.0759034 8.57557 0.0758657H19.9391C19.9937 0.0759377 20.0476 0.0876854 20.0974 0.110336C20.1472 0.132986 20.1916 0.166026 20.2279 0.207289C20.4782 0.491554 20.7082 0.878039 20.9181 1.36674C21.8884 3.6214 22.7711 5.92765 23.5662 8.28549C24.6953 11.6353 25.9717 14.6084 27.2597 18.0138C27.2751 18.0547 27.303 18.0839 27.3434 18.1014C27.3757 18.1152 27.4104 18.1219 27.4454 18.1212C27.4804 18.1204 27.5149 18.1122 27.5465 18.097C27.5782 18.0818 27.6063 18.0601 27.629 18.0332C27.6517 18.0062 27.6686 17.9748 27.6784 17.9408C29.3495 12.2146 31.1467 6.45626 33.07 0.665813C33.1263 0.495007 33.2347 0.346432 33.3798 0.241091C33.5249 0.135749 33.6994 0.0789735 33.8786 0.0787868H40.5638C40.6263 0.0785113 40.688 0.0932109 40.7438 0.121684C40.7996 0.150157 40.8479 0.191594 40.8848 0.242597C40.9217 0.2936 40.9462 0.35272 40.9561 0.415115C40.9661 0.477509 40.9613 0.541404 40.9421 0.601563L33.2952 24.8741C33.2534 25.0086 33.1702 25.1262 33.0575 25.2097C32.9448 25.2932 32.8086 25.3383 32.6686 25.3385H20.5455C20.4939 25.3386 20.4432 25.3225 20.4004 25.2922C20.3576 25.262 20.3246 25.219 20.3059 25.1691Z" fill="white"/>
<path d="M144.152 24.5062C141.793 22.3888 142.815 19.0273 143.638 16.2908C144.83 12.3247 145.944 9.00109 146.979 6.32004C147.309 5.46919 147.911 4.47232 148.787 3.32941C150.452 1.15653 152.653 0.0710688 155.389 0.0730158C162.086 0.0769099 169.042 0.077884 176.256 0.075937C176.693 0.075937 177.171 0.107089 177.691 0.169394C180.504 0.514017 181.338 3.03444 180.862 5.5461C180.013 10.0204 178.367 14.5326 176.756 18.6914C175.759 21.2586 173.871 23.8549 171.251 24.7194C170.243 25.0543 168.901 25.2753 167.226 25.3824C160.618 25.8107 154.197 25.7971 147.961 25.3415C146.633 25.2441 145.467 25.027 144.464 24.6902C144.35 24.6517 144.244 24.5891 144.152 24.5062ZM151.496 16.428C151.106 18.2592 152.977 18.6827 154.311 18.7586C157.226 18.926 160.284 18.9621 163.486 18.8667C164.959 18.8219 166.282 18.669 167.457 18.4081C168.831 18.1044 169.36 17.2253 169.981 15.9403C170.824 14.1977 171.492 12.0978 171.985 9.64069C172.432 7.4094 171.788 6.63254 169.608 6.51572C167.313 6.39306 164.016 6.38137 159.717 6.48067C158.264 6.51377 156.985 6.68608 155.88 6.99761C154.664 7.33931 154.023 8.66523 153.572 9.77796C152.65 12.0482 151.958 14.2649 151.496 16.428Z" fill="white"/>
<path d="M260.213 19.1499C260.259 19.1499 260.305 19.1607 260.346 19.1815C260.387 19.2022 260.423 19.2323 260.45 19.2693C260.478 19.3064 260.497 19.3494 260.505 19.3951C260.514 19.4407 260.512 19.4878 260.499 19.5325C259.993 21.3763 259.373 23.2863 258.64 25.2626C258.514 25.6033 258.246 25.7737 257.834 25.7737C246.111 25.7795 239.903 25.7785 239.21 25.7707C236.392 25.7415 232.747 25.6305 229.926 24.4477C229.427 24.2394 229.002 23.8354 228.65 23.2357C227.593 21.4337 227.939 19.3777 228.468 17.1639C229.167 14.258 230.036 11.9216 231.205 8.77613C231.962 6.74344 232.733 5.26273 233.518 4.334C234.895 2.70629 236.569 1.6033 238.54 1.02503C239.395 0.773867 240.847 0.599608 242.895 0.502257C245.279 0.387383 247.804 0.322158 250.473 0.306582C254.897 0.283217 260.091 0.283217 266.055 0.306582C266.13 0.306693 266.204 0.32465 266.271 0.359C266.338 0.393349 266.395 0.443122 266.44 0.504282C266.484 0.565443 266.513 0.63627 266.525 0.711016C266.537 0.785763 266.531 0.862327 266.509 0.934497L264.747 6.52148C264.716 6.62053 264.655 6.70709 264.572 6.76854C264.489 6.83 264.388 6.86315 264.285 6.86318C254.13 6.86513 248.154 6.86902 246.358 6.87487C244.263 6.88071 242.469 7.04134 240.975 7.35675C240.76 7.40291 240.557 7.49555 240.38 7.62836C238.864 8.77613 237.919 11.39 237.31 13.3964C236.759 15.213 236.45 16.0424 236.539 17.5261C236.574 18.0888 236.908 18.4548 237.541 18.6242C238.725 18.9415 240.346 19.1022 242.404 19.1061C253.811 19.1314 259.747 19.146 260.213 19.1499Z" fill="white"/>
<path d="M59.7098 6.54195C51.5257 6.53806 46.886 6.5439 45.7905 6.55948C45.5691 6.56142 45.3872 6.54001 45.2447 6.49523C45.2053 6.48317 45.1685 6.46331 45.1367 6.43683C45.105 6.41035 45.0787 6.37778 45.0596 6.34103C45.0405 6.30429 45.0289 6.26411 45.0255 6.22288C45.0221 6.18165 45.0269 6.14019 45.0397 6.10095L46.6915 0.992937C46.7441 0.828584 46.8477 0.685663 46.987 0.585234C47.1264 0.484805 47.2941 0.432181 47.4655 0.435116C47.8005 0.429275 51.8703 0.428301 59.6751 0.432195C67.8611 0.436089 72.5008 0.430248 73.5944 0.414672C73.8158 0.412725 73.9977 0.434141 74.1402 0.478922C74.1796 0.49098 74.2164 0.510836 74.2482 0.537319C74.2799 0.563801 74.3062 0.596373 74.3253 0.633118C74.3444 0.669862 74.356 0.710035 74.3594 0.751267C74.3628 0.792499 74.358 0.833958 74.3452 0.873196L72.6934 5.98121C72.6409 6.14508 72.5378 6.28766 72.399 6.38804C72.2603 6.48843 72.0932 6.54134 71.9223 6.53903C71.5854 6.54487 67.5146 6.54585 59.7098 6.54195Z" fill="white"/>
<path d="M85.1949 0.440933C85.2169 0.440913 85.2387 0.446106 85.2584 0.456096C85.2781 0.466085 85.2952 0.480594 85.3084 0.498467C85.3216 0.51634 85.3305 0.537082 85.3343 0.559038C85.3382 0.580994 85.3369 0.603556 85.3306 0.624926C84.7223 2.66346 83.3736 7.11728 81.2848 13.9864C80.9113 15.2169 80.6379 16.4971 80.4647 17.8269C80.4518 17.9281 80.4776 18.0305 80.5369 18.1131C81.1433 18.9484 83.211 19.1178 84.2881 19.1674C85.2546 19.2102 87.4666 19.2219 90.9243 19.2025C93.0353 19.1908 95.9318 18.9776 96.879 16.6791C99.0246 11.4747 100.596 6.41927 102.224 1.09221C102.282 0.903528 102.398 0.738529 102.555 0.621347C102.712 0.504165 102.902 0.440946 103.096 0.440933H109.617C109.677 0.440967 109.736 0.455221 109.79 0.482535C109.843 0.50985 109.89 0.549453 109.925 0.598123C109.961 0.646792 109.984 0.703154 109.994 0.762621C110.004 0.822088 109.999 0.88298 109.981 0.940344C108.092 7.02479 106.181 12.7354 104.246 18.0722C104.055 18.6018 103.654 19.5588 103.042 20.9431C102.737 21.6304 102.09 22.3956 101.101 23.2386C98.499 25.4553 94.7478 25.9489 91.499 25.9869C90.0397 26.0044 86.8881 26.0044 82.0443 25.9869C80.3944 25.9791 78.7281 25.8691 77.0455 25.6568C75.59 25.4699 73.7909 25.1224 72.6387 24.2112C72.5626 24.1515 72.5005 24.0758 72.4568 23.9892C71.8946 22.8853 71.6424 21.9721 71.7002 21.2497C71.7829 20.1906 72.0592 18.8335 72.529 17.1785C73.4839 13.8043 74.6005 10.2802 75.8788 6.60618C76.569 4.6173 77.0715 2.53788 77.8194 0.718383C77.8526 0.636428 77.9093 0.566301 77.9824 0.516903C78.0554 0.467504 78.1414 0.441063 78.2295 0.440933H85.1949Z" fill="white"/>
<path d="M136.679 15.9898C137.949 16.5798 138.336 17.2515 138.605 18.6884C139.1 21.3305 139.464 23.557 139.696 25.3677C139.703 25.4182 139.7 25.4696 139.685 25.5185C139.671 25.5674 139.646 25.6126 139.612 25.6511C139.579 25.6896 139.538 25.7205 139.492 25.7416C139.445 25.7627 139.395 25.7737 139.344 25.7736H131.362C131.248 25.7736 131.138 25.7323 131.051 25.6572C130.965 25.5822 130.908 25.4784 130.892 25.3648L130.109 20.1574C130.089 20.03 130.032 19.9114 129.945 19.8171C129.858 19.7228 129.745 19.6572 129.621 19.6288L128.922 19.474C128.792 19.4411 128.658 19.4244 128.524 19.4244H116.031C115.854 19.4246 115.682 19.4815 115.539 19.587C115.396 19.6925 115.291 19.8411 115.237 20.0114L113.582 25.2596C113.535 25.4087 113.442 25.5388 113.318 25.6312C113.193 25.7236 113.043 25.7735 112.889 25.7736H106.204C106.142 25.7738 106.081 25.7592 106.026 25.731C105.971 25.7029 105.923 25.6619 105.886 25.6116C105.85 25.5612 105.825 25.5028 105.815 25.4411C105.805 25.3795 105.81 25.3163 105.828 25.2567C107.996 18.3857 110.55 10.3921 113.49 1.27619C113.655 0.762171 113.974 0.506138 114.445 0.508085C118.359 0.513926 124.513 0.514898 132.907 0.511004C133.573 0.511004 134.268 0.500295 134.992 0.478878C137.039 0.414626 139.007 0.639509 140.898 1.15352C141.41 1.29371 141.823 1.48744 142.137 1.73471C142.209 1.79264 142.272 1.86381 142.321 1.94499C143.034 3.13657 143.241 4.48391 142.942 5.98701C142.53 8.05475 141.768 10.2218 140.655 12.4881C139.827 14.1742 138.507 15.2753 136.693 15.7912C136.672 15.7968 136.653 15.8088 136.639 15.8257C136.625 15.8425 136.617 15.8634 136.616 15.8853C136.614 15.9072 136.619 15.9291 136.63 15.9478C136.642 15.9666 136.659 15.9813 136.679 15.9898ZM117.868 12.9554C117.923 12.9788 118.062 12.9914 118.283 12.9934C120.751 13.0148 123.738 13.0012 127.244 12.9525C128.942 12.9291 130.555 12.788 132.081 12.529C132.389 12.4761 132.671 12.3162 132.878 12.0763C133.248 11.6499 133.543 11.0911 133.762 10.3999C134.161 9.14119 134.946 7.53489 133.355 7.16983C132.795 7.04132 132.214 6.97707 131.613 6.97707C124.927 6.97707 121.103 6.97707 120.14 6.97707C120.051 6.97707 119.962 6.99701 119.88 7.03548C119.476 7.23213 119.204 7.56215 119.063 8.02554C118.611 9.50723 118.147 11.0094 117.671 12.5319C117.646 12.615 117.652 12.7046 117.688 12.783C117.725 12.8614 117.789 12.9229 117.868 12.9554Z" fill="white"/>
<path d="M299.978 1.03679L298.347 6.21782C298.317 6.31052 298.259 6.39134 298.182 6.44857C298.104 6.50581 298.01 6.53648 297.914 6.53616H271.213C271.141 6.5364 271.071 6.51951 271.007 6.48688C270.943 6.45425 270.888 6.4068 270.845 6.3484C270.803 6.29001 270.775 6.22234 270.764 6.15091C270.752 6.07949 270.758 6.00634 270.78 5.93745L272.411 0.756422C272.441 0.663724 272.499 0.582906 272.576 0.525673C272.654 0.46844 272.748 0.437762 272.844 0.438083H299.545C299.617 0.437844 299.687 0.454733 299.751 0.487366C299.815 0.519999 299.87 0.567449 299.913 0.625841C299.955 0.684233 299.983 0.751908 299.994 0.823333C300.006 0.894757 300 0.967904 299.978 1.03679Z" fill="white"/>
<path d="M56.6286 10.0408C65.7906 10.0388 70.517 10.0437 70.8077 10.0554C70.8544 10.0555 70.9004 10.0667 70.942 10.0881C70.9836 10.1095 71.0196 10.1405 71.0472 10.1786C71.0747 10.2167 71.093 10.2608 71.1006 10.3074C71.1082 10.354 71.1048 10.4017 71.0907 10.4467L69.6757 15.0378C69.6243 15.2072 69.5202 15.3555 69.3788 15.4607C69.2373 15.5658 69.0661 15.6224 68.8902 15.6219C68.7632 15.6258 64.6644 15.6277 56.5939 15.6277C47.4338 15.6277 42.7074 15.6219 42.4148 15.6102C42.3681 15.6101 42.3221 15.5989 42.2805 15.5775C42.2389 15.5561 42.2029 15.5251 42.1754 15.487C42.1478 15.4489 42.1295 15.4048 42.1219 15.3582C42.1144 15.3116 42.1178 15.2639 42.1318 15.2189L43.5468 10.6278C43.5987 10.4589 43.7031 10.3113 43.8444 10.2067C43.9858 10.1021 44.1568 10.046 44.3323 10.0466C44.4613 10.0427 48.5601 10.0408 56.6286 10.0408Z" fill="white"/>
<path d="M282.279 15.6277C273.117 15.6277 268.391 15.6218 268.1 15.6102C268.053 15.6101 268.007 15.5988 267.966 15.5774C267.924 15.556 267.888 15.525 267.86 15.4869C267.833 15.4488 267.815 15.4047 267.807 15.3581C267.799 15.3115 267.803 15.2638 267.817 15.2188L269.232 10.6277C269.283 10.4583 269.387 10.31 269.529 10.2049C269.67 10.0997 269.841 10.0432 270.017 10.0436C270.146 10.0397 274.245 10.0378 282.314 10.0378C291.476 10.0378 296.203 10.0436 296.496 10.0553C296.542 10.0559 296.588 10.0674 296.629 10.089C296.67 10.1106 296.706 10.1417 296.733 10.1797C296.76 10.2177 296.778 10.2617 296.786 10.308C296.793 10.3544 296.79 10.4019 296.776 10.4466L295.361 15.0377C295.309 15.2072 295.205 15.3554 295.064 15.4606C294.922 15.5658 294.751 15.6223 294.575 15.6218C294.448 15.6257 290.349 15.6277 282.279 15.6277Z" fill="white"/>
<path d="M53.6599 19.4274C61.8709 19.4274 66.5251 19.4196 67.6225 19.404C67.8458 19.4021 68.0287 19.4235 68.1712 19.4683C68.2107 19.4807 68.2474 19.5009 68.2791 19.5275C68.3109 19.5542 68.3371 19.5868 68.3561 19.6235C68.3752 19.6602 68.3868 19.7002 68.3903 19.7413C68.3937 19.7823 68.3889 19.8235 68.3762 19.8625L66.7215 24.9881C66.669 25.1527 66.5655 25.296 66.4262 25.3969C66.2869 25.4979 66.1192 25.5511 65.9475 25.5488C65.6106 25.5547 61.5273 25.5576 53.6975 25.5576C45.4845 25.5556 40.8294 25.5624 39.732 25.578C39.5106 25.58 39.3287 25.5585 39.1862 25.5138C39.1465 25.5016 39.1095 25.4817 39.0774 25.4551C39.0453 25.4286 39.0188 25.396 38.9995 25.3593C38.9801 25.3226 38.9682 25.2824 38.9646 25.2413C38.961 25.2001 38.9656 25.1587 38.9783 25.1195L40.6359 19.994C40.6884 19.8293 40.7919 19.686 40.9311 19.5851C41.0704 19.4842 41.2382 19.4309 41.4098 19.4332C41.7467 19.4274 45.8301 19.4254 53.6599 19.4274Z" fill="white"/>
<path d="M279.345 19.4273C287.552 19.4292 292.205 19.4224 293.302 19.4069C293.523 19.4049 293.706 19.4263 293.851 19.4711C293.89 19.4836 293.927 19.5037 293.959 19.5304C293.99 19.557 294.017 19.5897 294.036 19.6264C294.055 19.663 294.066 19.7031 294.07 19.7441C294.073 19.7852 294.069 19.8264 294.056 19.8654L292.401 24.988C292.349 25.1526 292.245 25.2959 292.106 25.3969C291.966 25.4978 291.799 25.551 291.627 25.5487C291.29 25.5546 287.209 25.5565 279.383 25.5546C271.176 25.5526 266.524 25.5594 265.429 25.575C265.206 25.5789 265.023 25.5585 264.88 25.5137C264.84 25.5012 264.803 25.481 264.771 25.4541C264.739 25.4273 264.713 25.3944 264.694 25.3573C264.675 25.3203 264.663 25.2799 264.66 25.2385C264.657 25.1972 264.662 25.1557 264.675 25.1165L266.33 19.9939C266.383 19.8298 266.487 19.6871 266.626 19.5868C266.765 19.4864 266.933 19.4336 267.104 19.4361C267.441 19.4302 271.521 19.4273 279.345 19.4273Z" fill="white"/>
</svg>
